<?xml version="1.0" standalone="no"?>
<!DOCTYPE svg PUBLIC "-//W3C//DTD SVG 1.1//EN" "http://www.w3.org/Graphics/SVG/1.1/DTD/svg11.dtd" >
<svg xmlns="http://www.w3.org/2000/svg" xmlns:xlink="http://www.w3.org/1999/xlink" version="1.1">
<metadata>
Created by FontForge 20170924 at Wed Nov 29 03:29:16 2017
 By www-data
Typeface (c) Kautsar Rahadi. 2017. All Rights Reserved
</metadata>
<defs>
<font id="Hansief" horiz-adv-x="1014" >
  <font-face 
    font-family="Hansief"
    font-weight="400"
    font-stretch="normal"
    units-per-em="2048"
    panose-1="2 0 5 0 0 0 0 0 0 0"
    ascent="1638"
    descent="-410"
    x-height="1500"
    cap-height="1500"
    bbox="-107 -487 2794 2047"
    underline-thickness="150"
    underline-position="-292"
    unicode-range="U+0020-2265"
  />
<missing-glyph horiz-adv-x="1162" 
d="M63 1500h1035v-1500h-1035v1500zM329 1301l251 -373l252 373h-503zM898 459v583l-197 -292zM263 459l197 291l-197 292v-583zM329 200h503l-252 372z" />
    <glyph glyph-name=".notdef" horiz-adv-x="1162" 
d="M63 1500h1035v-1500h-1035v1500zM329 1301l251 -373l252 373h-503zM898 459v583l-197 -292zM263 459l197 291l-197 292v-583zM329 200h503l-252 372z" />
    <glyph glyph-name="space" unicode=" " horiz-adv-x="388" 
 />
    <glyph glyph-name="space" unicode="&#xa0;" horiz-adv-x="388" 
 />
    <glyph glyph-name="exclam" unicode="!" horiz-adv-x="549" 
d="M387 237q45 -46 45 -111t-45 -111q-46 -46 -112 -46q-65 0 -110 46q-46 46 -46 111t46 111t110 46q66 0 112 -46zM421 404h-290v1096h290v-1096z" />
    <glyph glyph-name="quotedbl" unicode="&#x22;" horiz-adv-x="835" 
d="M316 1481q41 -48 41 -122q0 -125 -78 -210q-74 -80 -198 -105l-28 142q69 14 99 39q-49 16 -79 57q-31 42 -31 93q0 65 46 111t111 46q74 0 117 -51zM729 1481q40 -48 40 -122q0 -125 -78 -210q-74 -80 -198 -105l-28 142q70 15 99 39q-49 16 -79 57q-31 42 -31 93
q0 65 46 111t111 46q75 0 118 -51z" />
    <glyph glyph-name="numbersign" unicode="#" horiz-adv-x="1491" 
d="M1344 1500l-107 -384h238l-68 -242h-238l-69 -248h238l-67 -242h-238l-106 -384h-301l107 384h-219l-107 -384h-300l107 384h-238l67 242h238l69 248h-238l67 242h238l107 384h300l-107 -384h219l107 384h301zM650 874l-68 -248h218l69 248h-219z" />
    <glyph glyph-name="dollar" unicode="$" horiz-adv-x="969" 
d="M150 815q-108 128 -108 275q0 127 75 226q73 97 195 137v137h290v-137q165 -55 266 -228l-251 -144q-61 105 -160 105q-46 0 -83 -25q-42 -28 -42 -71q0 -55 74 -124q28 -26 65 -52q29 -21 58 -38q150 -86 236 -188q107 -129 107 -275q0 -128 -75 -226q-72 -96 -195 -137
v-138h-290v138q-167 57 -254 207l-11 21l250 144q61 -105 160 -105q46 0 83 24q42 28 42 72q0 55 -74 124q-29 26 -65 52q-29 21 -58 37q-150 86 -235 189z" />
    <glyph glyph-name="percent" unicode="%" horiz-adv-x="1959" 
d="M1780 806q100 -100 100 -241v-256q0 -140 -99 -240q-100 -100 -241 -100q-140 0 -240 99q-100 100 -100 241v256q0 141 100 241q100 99 240 99t240 -99zM1471 634q-29 -29 -29 -69v-256q0 -41 29 -70t69 -29t69 29t29 70v256q0 40 -29 69t-69 29t-69 -29zM642 1431
q100 -100 100 -240v-257q0 -140 -100 -239q-99 -100 -240 -100q-140 0 -240 99q-100 100 -100 240v257q0 140 100 240t240 100t240 -100zM333 1260q-29 -29 -29 -69v-257q0 -40 29 -69q29 -28 69 -28t69 28q29 29 29 69v257q0 40 -29 69t-69 29t-69 -29zM826 -1h-257
l547 1501h257z" />
    <glyph glyph-name="ampersand" unicode="&#x26;" horiz-adv-x="1384" 
d="M470 1071q9 -14 22 -30l12 -13l11 -13l7 4l9 5q11 6 20 12q24 15 42 29q49 39 49 71q0 43 -26 73q-27 32 -68 32q-46 0 -74 -29q-27 -29 -27 -76q0 -29 23 -65zM738 309l-289 339q-132 -85 -132 -187q0 -81 72 -143q68 -59 152 -59q111 0 197 50zM184 113
q-157 147 -157 348q0 252 231 409q-101 127 -101 266q0 166 113 280q112 115 278 115q160 0 273 -117q111 -116 111 -278q0 -116 -62 -203q-53 -74 -163 -141l214 -250q42 114 42 273h291q0 -290 -121 -500q30 -18 88 -23q21 -1 49 -2h45v-290q-137 0 -198 11
q-102 20 -178 84q-170 -126 -398 -126q-203 0 -357 144z" />
    <glyph glyph-name="quotesingle" unicode="'" horiz-adv-x="409" 
d="M337 1481q41 -48 41 -122q0 -124 -78 -209q-75 -81 -198 -106l-28 142q69 14 99 39q-49 16 -80 57q-30 42 -30 93q0 65 46 111t111 46q74 0 117 -51z" />
    <glyph glyph-name="parenleft" unicode="(" horiz-adv-x="619" 
d="M110 1043q0 292 171 587l251 -144q-131 -227 -131 -443v-584q0 -216 131 -444l-251 -144q-171 297 -171 588v584z" />
    <glyph glyph-name="parenright" unicode=")" horiz-adv-x="632" 
d="M473 459q0 -291 -172 -588l-250 144q131 228 131 444v584q0 216 -131 443l250 144q172 -295 172 -587v-584z" />
    <glyph glyph-name="asterisk" unicode="*" horiz-adv-x="683" 
d="M253 1054l-144 -83l-81 139l145 84l-145 84l81 139l144 -83v166h161v-166l144 83l81 -139l-144 -84l144 -84l-81 -139l-144 83v-166h-161v166z" />
    <glyph glyph-name="plus" unicode="+" horiz-adv-x="692" 
d="M202 872v231h242v-231h231v-242h-231v-230h-242v230h-231v242h231z" />
    <glyph glyph-name="comma" unicode="," horiz-adv-x="378" 
d="M209 284q74 0 118 -52q40 -47 40 -122q0 -126 -78 -210q-73 -79 -198 -104l-28 142q71 14 99 38q-49 16 -80 57q-30 42 -30 94q0 64 46 111q46 46 111 46z" />
    <glyph glyph-name="hyphen" unicode="-" horiz-adv-x="728" 
d="M679 630h-703v242h703v-242z" />
    <glyph glyph-name="hyphen" unicode="&#xad;" horiz-adv-x="728" 
d="M679 630h-703v242h703v-242z" />
    <glyph glyph-name="period" unicode="." horiz-adv-x="473" 
d="M385 237q45 -46 45 -111t-45 -111q-46 -46 -112 -46q-65 0 -110 46q-46 46 -46 111t46 111t110 46q66 0 112 -46z" />
    <glyph glyph-name="slash" unicode="/" horiz-adv-x="889" 
d="M246 -120h-309l646 1743h310z" />
    <glyph glyph-name="zero" unicode="0" horiz-adv-x="1087" 
d="M915 1389q142 -141 142 -340v-599q0 -198 -142 -340q-141 -141 -340 -141t-340 141q-142 142 -142 340v599q0 199 142 340q141 142 340 142t340 -142zM440 1184q-57 -56 -57 -135v-599q0 -78 57 -135q56 -56 135 -56t135 56q57 57 57 135v599q0 79 -57 135
q-56 56 -135 56t-135 -56z" />
    <glyph glyph-name="one" unicode="1" horiz-adv-x="1087" 
d="M730 1500v-1500h-290v1210h-170v290h460z" />
    <glyph glyph-name="two" unicode="2" horiz-adv-x="1087" 
d="M348 1123l-251 146q152 262 429 262q189 0 312 -120q124 -121 124 -307q0 -160 -90 -280q-59 -80 -218 -203q-101 -78 -153 -144q-66 -83 -91 -187h586v-290h-894l5 226q0 338 370 624l15 12l16 12l33 26q38 31 63 58q68 73 68 146q0 67 -40 102q-38 34 -106 34
q-111 0 -178 -117z" />
    <glyph glyph-name="three" unicode="3" horiz-adv-x="1087" 
d="M684 519q0 79 -57 135q-56 56 -135 56q-59 0 -121 -35h-39l-150 151l344 384h-405v290h795v-283l-227 -258q129 -58 207 -178t78 -262v-68q0 -199 -142 -341q-141 -141 -340 -141q-277 0 -429 262l251 145q69 -117 178 -117q79 0 135 56q57 57 57 136v68z" />
    <glyph glyph-name="four" unicode="4" horiz-adv-x="1087" 
d="M818 1500l-391 -856h248v354h290v-354h113v-290h-113v-354h-290v354h-625v163l449 983h319z" />
    <glyph glyph-name="five" unicode="5" horiz-adv-x="1087" 
d="M97 231l251 145q69 -117 178 -117q79 0 135 56q57 57 57 135v69q0 79 -57 135q-56 56 -135 56q-116 0 -178 -120l-217 59l94 851h705v-290h-443l-20 -213q34 4 59 4q199 0 341 -142q142 -141 142 -340v-69q0 -198 -142 -340q-142 -141 -341 -141q-276 0 -429 262z" />
    <glyph glyph-name="six" unicode="6" horiz-adv-x="1087" 
d="M450 1184q-56 -56 -56 -135v-88q90 40 191 40q199 0 340 -142q142 -141 142 -340v-68q0 -199 -142 -341q-141 -141 -340 -141t-340 141q-142 142 -142 341v598q0 199 142 340q141 142 340 142q277 0 429 -262l-251 -146q-68 117 -178 117q-79 0 -135 -56zM777 519
q0 79 -57 135q-56 56 -135 56t-135 -56t-56 -135v-68q0 -79 56 -135q56 -57 135 -57t135 57q57 56 57 135v68z" />
    <glyph glyph-name="seven" unicode="7" horiz-adv-x="1087" 
d="M996 1500l-482 -1500h-304l388 1210h-455v290h853z" />
    <glyph glyph-name="eight" unicode="8" horiz-adv-x="1087" 
d="M708 924q29 42 29 92v64q0 67 -48 114t-114 47q-67 0 -114 -47q-48 -47 -48 -114v-64q0 -43 62 -64q23 -8 53 -12q25 -3 47 -3q72 0 133 -13zM767 483q0 91 -49 129q-44 35 -143 35q-66 0 -127 12q-65 -57 -65 -142v-68q0 -79 57 -134q56 -56 135 -56t135 56
q57 55 57 134v34zM123 1016v64q0 187 132 319q133 132 320 132q186 0 319 -132t133 -319v-64q0 -128 -68 -236q98 -118 98 -297v-34q0 -199 -142 -339q-142 -141 -340 -141q-199 0 -341 141q-141 140 -141 339v68q0 163 99 292q-69 91 -69 207z" />
    <glyph glyph-name="nine" unicode="9" horiz-adv-x="1087" 
d="M105 231l251 145q68 -117 178 -117q79 0 135 56q57 57 57 135v89q-92 -40 -192 -40q-199 0 -340 141q-142 142 -142 341v68q0 199 142 340q141 142 340 142t340 -142q142 -141 142 -340v-599q0 -198 -142 -340q-141 -141 -340 -141q-276 0 -429 262zM342 981
q0 -79 57 -136q56 -56 135 -56t135 56q57 57 57 136v68q0 79 -57 135q-56 56 -135 56t-135 -56q-57 -56 -57 -135v-68z" />
    <glyph glyph-name="colon" unicode=":" horiz-adv-x="403" 
d="M319 853q46 -46 46 -111t-46 -111t-111 -46t-111 46t-46 111t46 111t111 46t111 -46zM319 237q46 -46 46 -111t-46 -111t-111 -46t-111 46t-46 111t46 111t111 46t111 -46z" />
    <glyph glyph-name="semicolon" unicode=";" horiz-adv-x="409" 
d="M210 284q74 0 118 -52q40 -47 40 -122q0 -126 -78 -210q-73 -79 -198 -104l-28 142q71 14 99 38q-49 16 -80 57q-30 42 -30 94q0 64 46 111q46 46 111 46zM321 854q46 -46 46 -111t-46 -111q-46 -47 -111 -47t-111 47q-46 46 -46 111t46 111t111 46t111 -46z" />
    <glyph glyph-name="semicolon" unicode="&#x37e;" horiz-adv-x="409" 
d="M210 284q74 0 118 -52q40 -47 40 -122q0 -126 -78 -210q-73 -79 -198 -104l-28 142q71 14 99 38q-49 16 -80 57q-30 42 -30 94q0 64 46 111q46 46 111 46zM321 854q46 -46 46 -111t-46 -111q-46 -47 -111 -47t-111 47q-46 46 -46 111t46 111t111 46t111 -46z" />
    <glyph glyph-name="less" unicode="&#x3c;" horiz-adv-x="852" 
d="M787 1085l-463 -309l463 -309v-347l-814 543v227l814 543v-348z" />
    <glyph glyph-name="equal" unicode="=" horiz-adv-x="945" 
d="M36 831h825v243h-825v-243zM36 428h825v242h-825v-242z" />
    <glyph glyph-name="greater" unicode="&#x3e;" horiz-adv-x="897" 
d="M85 1433l814 -543v-227l-814 -543v347l462 309l-462 309v348z" />
    <glyph glyph-name="question" unicode="?" horiz-adv-x="1008" 
d="M566 237q46 -46 46 -111t-46 -111t-112 -46q-64 0 -110 46t-46 111t46 111t110 46q66 0 112 -46zM243 1106l-251 145q163 280 460 280q198 0 337 -111q150 -121 150 -316q0 -141 -54 -224q-47 -73 -171 -152q-66 -43 -89 -83q-25 -43 -25 -120v-121h-291v121
q0 166 56 264q53 92 194 182q49 31 66 53q23 31 23 80q0 71 -65 107q-53 29 -131 30q-130 0 -209 -135z" />
    <glyph glyph-name="at" unicode="@" horiz-adv-x="1586" 
d="M1086 1124v-451q0 -54 26 -88q29 -38 81 -38q72 0 109 73q30 57 30 137q0 233 -165 398t-398 165q-234 0 -399 -165q-164 -165 -164 -398q0 -234 164 -399q165 -165 399 -165q150 0 281 76l97 -167q-177 -102 -378 -102q-314 0 -536 222q-221 221 -221 535q0 313 221 535
q222 222 536 222q313 0 535 -222q221 -222 221 -535q0 -163 -83 -277q-91 -125 -245 -125q-123 0 -203 70q-101 -70 -225 -70q-167 0 -285 118q-118 117 -118 284q0 166 118 284t285 118q83 0 162 -35h155zM892 673v252q-53 40 -123 40q-87 0 -148 -61t-61 -147
q0 -87 61 -148t148 -61q74 0 131 47q-8 37 -8 78z" />
    <glyph glyph-name="A" unicode="A" horiz-adv-x="1102" 
d="M696 1500l388 -1500h-299l-59 228h-405l-59 -228h-299l388 1500h345zM397 519h253l-127 489z" />
    <glyph glyph-name="a" unicode="a" horiz-adv-x="1102" 
d="M696 1500l388 -1500h-299l-59 228h-405l-59 -228h-299l388 1500h345zM397 519h253l-127 489z" />
    <glyph glyph-name="B" unicode="B" horiz-adv-x="1195" 
d="M388 1210v-315h263q64 0 111 46q46 47 46 111q0 65 -46 111q-47 47 -111 47h-263zM388 605v-315h263q64 0 111 46q46 47 46 111q0 65 -46 112q-47 46 -111 46h-263zM651 1500q185 0 316 -132q131 -131 131 -316q0 -172 -118 -302q118 -129 118 -303q0 -184 -131 -316
q-131 -131 -316 -131h-553v1500h553z" />
    <glyph glyph-name="b" unicode="b" horiz-adv-x="1193" 
d="M386 1210v-315h263q64 0 111 46q46 47 46 111q0 65 -46 111q-47 47 -111 47h-263zM386 605v-315h263q64 0 111 46q46 47 46 111q0 65 -46 112q-47 46 -111 46h-263zM649 1500q185 0 316 -132q131 -131 131 -316q0 -172 -118 -302q118 -129 118 -303q0 -184 -131 -316
q-131 -131 -316 -131h-553v1500h553z" />
    <glyph glyph-name="c" unicode="c" horiz-adv-x="1046" 
d="M401 1174q-66 -67 -66 -160v-528q0 -93 66 -160q67 -67 160 -67q131 0 209 135l251 -145q-162 -280 -460 -280q-213 0 -365 152t-152 365v528q0 213 152 365t365 152q298 0 460 -280l-251 -145q-78 134 -209 134q-93 0 -160 -66z" />
    <glyph glyph-name="C" unicode="C" horiz-adv-x="1047" 
d="M402 1174q-66 -67 -66 -160v-528q0 -93 66 -160q67 -67 160 -67q131 0 209 135l251 -145q-162 -280 -460 -280q-213 0 -365 152t-152 365v528q0 213 152 365t365 152q298 0 460 -280l-251 -145q-78 134 -209 134q-93 0 -160 -66z" />
    <glyph glyph-name="D" unicode="D" horiz-adv-x="1165" 
d="M601 1500q207 0 355 -148q148 -147 148 -355v-511q0 -200 -143 -343t-344 -143h-519v1500h503zM389 1210v-920h228q81 0 138 58q58 58 58 138v511q0 88 -62 150q-63 63 -150 63h-212z" />
    <glyph glyph-name="d" unicode="d" horiz-adv-x="1163" 
d="M599 1500q207 0 355 -148q148 -147 148 -355v-511q0 -200 -143 -343t-344 -143h-519v1500h503zM387 1210v-920h228q81 0 138 58q58 58 58 138v511q0 88 -62 150q-63 63 -150 63h-212z" />
    <glyph glyph-name="E" unicode="E" horiz-adv-x="894" 
d="M869 1500v-290h-481v-315h369v-290h-369v-315h481v-290h-771v1500h771z" />
    <glyph glyph-name="e" unicode="e" horiz-adv-x="892" 
d="M867 1500v-290h-481v-315h369v-290h-369v-315h481v-290h-771v1500h771z" />
    <glyph glyph-name="F" unicode="F" horiz-adv-x="883" 
d="M869 1500v-290h-480v-315h368v-290h-368v-605h-291v1500h771z" />
    <glyph glyph-name="f" unicode="f" horiz-adv-x="881" 
d="M867 1500v-290h-480v-315h368v-290h-368v-605h-291v1500h771z" />
    <glyph glyph-name="G" unicode="G" horiz-adv-x="1177" 
d="M197 121q-152 152 -152 365v528q0 213 152 365t365 152q297 0 460 -280l-126 -72l-126 -73q-78 134 -208 134q-93 0 -160 -66q-67 -67 -67 -160v-528q0 -93 67 -160t160 -67q23 0 58 6q41 7 75 19q93 31 94 79v242h-295v290h586v-895h-130l-83 44q-137 -75 -305 -75
q-213 0 -365 152z" />
    <glyph glyph-name="g" unicode="g" horiz-adv-x="1115" 
d="M44 1014q0 213 152 365t365 152q297 0 460 -280l-251 -145q-79 134 -209 134q-94 0 -160 -66q-67 -67 -67 -160v-528q0 -93 67 -160t160 -67q94 0 160 67q67 67 67 160v119h-295v290h585v-409q0 -213 -152 -365q-151 -152 -365 -152q-213 0 -365 152t-152 365v528z" />
    <glyph glyph-name="H" unicode="H" horiz-adv-x="1268" 
d="M1128 1500v-1500h-290v605h-450v-605h-290v1500h290v-605h450v605h290z" />
    <glyph glyph-name="h" unicode="h" horiz-adv-x="1266" 
d="M1126 1500v-1500h-290v605h-450v-605h-290v1500h290v-605h450v605h290z" />
    <glyph glyph-name="I" unicode="I" horiz-adv-x="529" 
d="M98 1500h291v-1500h-291v1500z" />
    <glyph glyph-name="i" unicode="i" horiz-adv-x="527" 
d="M96 1500h291v-1500h-291v1500z" />
    <glyph glyph-name="J" unicode="J" horiz-adv-x="1043" 
d="M282 429q0 -70 50 -120q49 -50 120 -50q70 0 120 50t50 120v1071h290v-1071q0 -191 -135 -325q-134 -135 -325 -135t-326 135q-135 134 -135 325v190h291v-190z" />
    <glyph glyph-name="j" unicode="j" horiz-adv-x="775" 
d="M644 429q0 -191 -135 -325q-135 -135 -326 -135q-115 0 -255 67l145 251q62 -27 105 -27q75 0 125 47q50 48 50 122v1071h291v-1071z" />
    <glyph glyph-name="K" unicode="K" horiz-adv-x="1057" 
d="M1033 1500l-420 -728l446 -772h-335l-278 481l-58 -98v-383h-290v1500h290v-537l310 537h335z" />
    <glyph glyph-name="k" unicode="k" horiz-adv-x="1055" 
d="M1031 1500l-420 -728l446 -772h-335l-278 481l-58 -98v-383h-290v1500h290v-537l310 537h335z" />
    <glyph glyph-name="L" unicode="L" horiz-adv-x="862" 
d="M388 1500v-1210h481v-290h-771v1500h290z" />
    <glyph glyph-name="l" unicode="l" horiz-adv-x="860" 
d="M386 1500v-1210h481v-290h-771v1500h290z" />
    <glyph glyph-name="M" unicode="M" horiz-adv-x="1527" 
d="M1387 1500v-1500h-291v755l-309 -710h-89l-310 710v-755h-290v1500h282l362 -831l363 831h282z" />
    <glyph glyph-name="m" unicode="m" horiz-adv-x="1525" 
d="M1385 1500v-1500h-291v755l-309 -710h-89l-310 710v-755h-290v1500h282l362 -831l363 831h282z" />
    <glyph glyph-name="N" unicode="N" horiz-adv-x="1228" 
d="M1088 1500v-1500h-281l-419 835v-835h-290v1500h281l418 -835v835h291z" />
    <glyph glyph-name="n" unicode="n" horiz-adv-x="1226" 
d="M1086 1500v-1500h-281l-419 835v-835h-290v1500h281l418 -835v835h291z" />
    <glyph glyph-name="o" unicode="o" horiz-adv-x="1134" 
d="M1022 0h-945v290h945v-290zM914 1379q152 -152 152 -365v-52q0 -214 -152 -366q-151 -151 -365 -151q-213 0 -365 151q-152 152 -152 366v52q0 213 152 365t365 152q214 0 365 -152zM389 1174q-67 -67 -67 -160v-52q0 -94 67 -161q66 -66 160 -66t160 66q67 67 67 161v52
q0 93 -67 160q-66 66 -160 66t-160 -66z" />
    <glyph glyph-name="O" unicode="O" horiz-adv-x="1176" 
d="M402 1174q-67 -67 -67 -160v-528q0 -93 67 -160t160 -67q94 0 160 67q67 66 67 160v528q0 93 -67 160q-66 66 -160 66q-93 0 -160 -66zM928 1379q151 -152 151 -365v-528q0 -213 -151 -365q-152 -152 -366 -152q-213 0 -365 152t-152 365v528q0 213 152 365t365 152
q214 0 366 -152z" />
    <glyph glyph-name="p" unicode="p" horiz-adv-x="1147" 
d="M386 1210v-315h263q64 0 111 47q46 46 46 110q0 65 -46 111q-47 47 -111 47h-263zM386 605v-605h-290v1500h553q184 0 316 -131q131 -132 131 -317q0 -184 -131 -316q-131 -131 -316 -131h-263z" />
    <glyph glyph-name="P" unicode="P" horiz-adv-x="1149" 
d="M388 1210v-315h263q64 0 111 47q46 46 46 110q0 65 -46 111q-47 47 -111 47h-263zM388 605v-605h-290v1500h553q184 0 316 -131q131 -132 131 -317q0 -184 -131 -316q-131 -131 -316 -131h-263z" />
    <glyph glyph-name="q" unicode="q" horiz-adv-x="1195" 
d="M401 1174q-67 -67 -67 -160v-528q0 -93 67 -160t160 -67q94 0 161 67q66 67 66 160v528q0 93 -66 160q-67 66 -161 66q-93 0 -160 -66zM1143 109l-205 -205l-128 129q-117 -64 -249 -64q-213 0 -365 152t-152 365v528q0 213 152 365t365 152q214 0 366 -152
q151 -152 151 -365v-528q0 -132 -63 -248z" />
    <glyph glyph-name="Q" unicode="Q" horiz-adv-x="1196" 
d="M402 1174q-67 -67 -67 -160v-528q0 -93 67 -160t160 -67q94 0 161 67q66 67 66 160v528q0 93 -66 160q-67 66 -161 66q-93 0 -160 -66zM1144 109l-205 -205l-128 129q-117 -64 -249 -64q-213 0 -365 152t-152 365v528q0 213 152 365t365 152q214 0 366 -152
q151 -152 151 -365v-528q0 -132 -63 -248z" />
    <glyph glyph-name="r" unicode="r" horiz-adv-x="1164" 
d="M386 605v-605h-290v1500h553q184 0 316 -132q131 -131 131 -316q0 -141 -82 -257q-81 -115 -214 -163l260 -632h-314l-249 605h-111zM386 1210v-315h263q64 0 110 46q47 47 47 111q0 65 -47 111q-46 47 -110 47h-263z" />
    <glyph glyph-name="R" unicode="R" horiz-adv-x="1166" 
d="M388 605v-605h-290v1500h553q184 0 316 -132q131 -131 131 -316q0 -141 -82 -257q-81 -115 -214 -163l260 -632h-314l-249 605h-111zM388 1210v-315h263q64 0 110 46q47 47 47 111q0 65 -47 111q-46 47 -110 47h-263z" />
    <glyph glyph-name="s" unicode="s" horiz-adv-x="924" 
d="M150 1417q128 114 303 114q265 0 410 -251l-251 -145q-60 106 -159 106q-58 0 -99 -30q-46 -34 -46 -89q0 -68 67 -134q42 -40 158 -118q41 -28 62 -43q36 -25 63 -46q69 -53 114 -105q115 -132 115 -302q0 -172 -133 -290q-128 -115 -301 -115q-266 0 -412 252l251 145
q61 -107 161 -107q57 0 98 30q46 34 46 90q0 67 -68 133q-41 41 -157 118l-31 22l-32 21q-35 25 -62 46q-69 54 -114 105q-115 133 -115 302q0 172 132 291z" />
    <glyph glyph-name="S" unicode="S" horiz-adv-x="1059" 
d="M372 930q55 -35 147 -35q211 0 353 -119q150 -127 150 -334q0 -198 -154 -338q-149 -135 -349 -135q-299 0 -460 279l126 73l125 73q78 -135 209 -135q80 0 144 51q68 54 68 132q0 86 -66 128q-55 35 -146 35q-211 0 -353 119q-150 127 -150 334q0 198 154 337
q149 136 349 136q298 0 460 -280l-252 -145q-77 134 -208 134q-80 0 -144 -50q-69 -54 -69 -132q0 -86 66 -128z" />
    <glyph glyph-name="t" unicode="t" horiz-adv-x="920" 
d="M889 1500v-290h-295v-1210h-291v1210h-295v290h881z" />
    <glyph glyph-name="T" unicode="T" horiz-adv-x="920" 
d="M889 1500v-290h-295v-1210h-291v1210h-295v290h881z" />
    <glyph glyph-name="U" unicode="U" horiz-adv-x="1248" 
d="M1117 486q0 -213 -152 -365q-151 -152 -365 -152q-213 0 -365 152t-152 365v1014h290v-1014q0 -93 67 -160t160 -67q94 0 160 67q67 67 67 160v1014h290v-1014z" />
    <glyph glyph-name="u" unicode="u" horiz-adv-x="1248" 
d="M1117 486q0 -213 -152 -365q-151 -152 -365 -152q-213 0 -365 152t-152 365v1014h290v-1014q0 -93 67 -160t160 -67q94 0 160 67q67 67 67 160v1014h290v-1014z" />
    <glyph glyph-name="V" unicode="V" horiz-adv-x="1160" 
d="M1129 1500l-388 -1500h-345l-388 1500h298l262 -1008l262 1008h299z" />
    <glyph glyph-name="v" unicode="v" horiz-adv-x="1135" 
d="M1121 1500l-388 -1500h-345l-388 1500h298l262 -1008l262 1008h299z" />
    <glyph glyph-name="w" unicode="w" horiz-adv-x="1540" 
d="M1526 1500l-388 -1500h-214l-160 621l-162 -621h-214l-388 1500h299l196 -756l197 756h142l197 -756l196 756h299z" />
    <glyph glyph-name="W" unicode="W" horiz-adv-x="1565" 
d="M1534 1500l-388 -1500h-214l-160 621l-162 -621h-214l-388 1500h299l196 -756l197 756h142l197 -756l196 756h299z" />
    <glyph glyph-name="x" unicode="x" horiz-adv-x="1131" 
d="M1059 1500l-350 -750l350 -750h-320l-190 407l-190 -407h-320l350 750l-350 750h320l190 -406l190 406h320z" />
    <glyph glyph-name="X" unicode="X" horiz-adv-x="1131" 
d="M1059 1500l-350 -750l350 -750h-320l-190 407l-190 -407h-320l350 750l-350 750h320l190 -406l190 406h320z" />
    <glyph glyph-name="Y" unicode="Y" horiz-adv-x="1059" 
d="M1049 1500l-397 -853v-647h-290v647l-397 853h320l222 -476l222 476h320z" />
    <glyph glyph-name="y" unicode="y" horiz-adv-x="1059" 
d="M1049 1500l-397 -853v-647h-290v647l-397 853h320l222 -476l222 476h320z" />
    <glyph glyph-name="Z" unicode="Z" horiz-adv-x="1010" 
d="M943 1500l-240 -605h127v-290h-243l-125 -315h470v-290h-898l241 605h-127v290h242l126 315h-471v290h898z" />
    <glyph glyph-name="z" unicode="z" horiz-adv-x="1007" 
d="M940 1500l-482 -1210h471v-290h-899l481 1210h-469v290h898z" />
    <glyph glyph-name="bracketleft" unicode="[" horiz-adv-x="758" 
d="M452 1332v-1161h237v-291h-528v1743h528v-291h-237z" />
    <glyph glyph-name="backslash" unicode="\" horiz-adv-x="831" 
d="M-60 1623h309l647 -1743h-310z" />
    <glyph glyph-name="bracketright" unicode="]" horiz-adv-x="758" 
d="M139 1332v291h527v-1743h-527v291h236v1161h-236z" />
    <glyph glyph-name="asciicircum" unicode="^" 
d="M690 1532l399 -691h-335l-216 374l-216 -374h-335l399 691h304z" />
    <glyph glyph-name="underscore" unicode="_" horiz-adv-x="1228" 
d="M1225 -302h-1228v242h1228v-242z" />
    <glyph glyph-name="grave" unicode="`" horiz-adv-x="1024" 
d="M543 1500l111 -325h-188l-177 325h254z" />
    <glyph glyph-name="braceleft" unicode="{" 
d="M615 930q0 -97 -54 -178q54 -83 54 -179v-369q0 -14 10 -23q10 -10 24 -10h203v-291h-203q-134 0 -229 95q-95 96 -95 229v369q0 13 -10 24q-10 9 -23 9h-63v290h63q13 0 23 10t10 24v368q0 135 95 230t229 95h203v-291h-203q-14 0 -24 -10t-10 -24v-368z" />
    <glyph glyph-name="bar" unicode="|" 
d="M663 -120h-290v1743h290v-1743z" />
    <glyph glyph-name="braceright" unicode="}" 
d="M457 1298q0 14 -10 24t-23 10h-203v291h203q133 0 228 -95t95 -230v-368q0 -14 10 -24t24 -10h62v-290h-62q-14 0 -24 -9q-10 -10 -10 -24v-369q0 -133 -95 -229q-95 -95 -228 -95h-203v291h203q13 0 23 10q10 9 10 23v369q0 97 54 179q-54 80 -54 178v368z" />
    <glyph glyph-name="asciitilde" unicode="~" 
d="M487 630l-35 15q-19 7 -34 12q-38 12 -68 12q-29 0 -64 -20q-14 -8 -29 -20q-11 -9 -26 -22l-155 186q141 118 274 118q34 0 75 -12q26 -8 73 -27q94 -38 135 -38q30 0 64 20q14 8 30 20q10 8 26 21l155 -185q-141 -118 -275 -118q-52 0 -146 38z" />
    <glyph glyph-name="exclamdown" unicode="&#xa1;" horiz-adv-x="672" 
d="M271 912q-64 0 -110 46t-46 111t46 111q45 46 110 46q66 0 112 -46q45 -46 45 -111t-45 -111q-46 -46 -112 -46zM417 -305h-290v1096h290v-1096z" />
    <glyph glyph-name="cent" unicode="&#xa2;" horiz-adv-x="1139" 
d="M463 1028q-67 -67 -67 -160v-236q0 -94 67 -160q67 -67 160 -67q130 0 208 135l252 -146q-118 -200 -315 -258v-136h-290v136q-165 48 -268 186q-104 138 -104 310v236q0 172 104 310q103 138 268 186v136h290v-136q197 -58 315 -258l-252 -145q-78 134 -208 134
q-93 0 -160 -67z" />
    <glyph glyph-name="sterling" unicode="&#xa3;" 
d="M236 1379q152 152 366 152q297 0 459 -280l-251 -145q-78 135 -208 135q-94 0 -160 -67q-67 -67 -67 -160q0 -77 42 -143h344v-242h-199q18 -67 18 -137q0 -107 -44 -202h526v-290h-1051v290h24q103 0 174 48q81 55 81 154q0 74 -53 137h-245v242h112q-19 73 -19 143
q0 213 151 365z" />
    <glyph glyph-name="currency" unicode="&#xa4;" 
d="M702 1221l125 125l205 -206l-125 -124q60 -113 60 -240t-60 -239l124 -125l-205 -205l-124 125q-113 -61 -240 -61t-239 61l-125 -125l-205 205l125 125q-61 112 -61 239t61 240l-125 124l205 206l125 -125q112 60 239 60t240 -60zM311 928q-63 -63 -63 -152
q0 -88 63 -151q62 -63 151 -63t152 63q62 63 62 151q0 89 -62 152q-63 63 -152 63t-151 -63z" />
    <glyph glyph-name="yen" unicode="&#xa5;" horiz-adv-x="1262" 
d="M973 1059h177v-242h-289l-63 -134h352v-242h-368v-441h-290v441h-369v242h352l-62 134h-290v242h177l-205 441h320l221 -475l223 475h320z" />
    <glyph glyph-name="brokenbar" unicode="&#xa6;" 
d="M373 1623h291v-729h-291v729zM373 609h291v-729h-291v729z" />
    <glyph glyph-name="section" unicode="&#xa7;" 
d="M91 1157q0 159 135 271q128 104 291 104q266 0 411 -251l-251 -144q-60 105 -160 105q-40 0 -84 -22q-52 -27 -52 -63q0 -33 73 -68q25 -12 57 -23q13 -5 25 -8q11 -3 19 -6q173 -46 278 -140q125 -112 125 -274q0 -137 -101 -247q87 -95 87 -220q0 -160 -135 -271
q-128 -106 -292 -106q-264 0 -410 252l251 144q60 -105 159 -105q41 0 85 22q52 27 52 64q0 33 -72 67q-26 12 -58 23q-12 5 -25 9q-10 3 -19 5q-172 46 -278 141q-126 114 -126 274q0 136 102 246q-87 96 -87 221zM638 581q31 28 31 60q0 44 -80 90q-74 42 -123 42
q-35 0 -66 -24q-34 -27 -34 -59q0 -52 81 -97q73 -40 128 -40q33 0 63 28z" />
    <glyph glyph-name="dieresis" unicode="&#xa8;" horiz-adv-x="1024" 
d="M447 1913q35 -36 35 -87t-35 -87q-36 -36 -87 -36t-87 36t-36 87t36 87t87 36t87 -36zM820 1913q36 -36 36 -87t-36 -87t-87 -36t-87 36t-36 87q0 50 36 87q36 36 87 36t87 -36z" />
    <glyph glyph-name="copyright" unicode="&#xa9;" horiz-adv-x="1593" 
d="M353 1155q-165 -165 -165 -398t165 -399q166 -165 399 -165t398 165t165 399q0 233 -165 398t-398 165q-234 0 -399 -165zM1006 502q-106 -106 -254 -106q-150 0 -255 106q-106 105 -106 255q0 149 106 254q105 106 255 106q149 0 254 -105l-136 -137q-49 48 -118 48
t-118 -49q-49 -48 -49 -117t49 -118q49 -48 118 -48t118 48zM1286 1292q222 -222 222 -535q0 -314 -222 -535q-221 -222 -534 -222q-314 0 -535 222q-222 221 -222 535q0 313 222 535q221 222 535 222q313 0 534 -222z" />
    <glyph glyph-name="ordfeminine" unicode="&#xaa;" horiz-adv-x="867" 
d="M535 601q-21 -3 -45 -4l-20 -1h-127q-123 0 -209 87q-87 86 -87 208q0 137 101 224q97 84 235 84q60 0 110 -12v15q0 56 -53 76q-20 7 -50 10q-20 2 -52 2q-84 0 -207 -45l-83 227q166 60 290 60q171 0 277 -77q120 -88 120 -253v-281q0 -47 12 -63q14 -20 58 -20v-242
q-97 0 -167 39q-45 -25 -103 -34zM452 948q-23 9 -69 9q-37 0 -63 -13q-31 -18 -31 -53q0 -22 16 -37q16 -16 38 -16h119l12 1q15 0 26 3q-5 27 -6 57q-9 36 -42 49z" />
    <glyph glyph-name="guillemotleft" unicode="&#xab;" horiz-adv-x="1381" 
d="M770 1348l-328 -596l328 -598h-330l-329 598l329 596h330zM1316 1348l-328 -596l328 -598h-331l-328 598l328 596h331z" />
    <glyph glyph-name="logicalnot" unicode="&#xac;" 
d="M883 403h-242v226h-519v241h761v-467z" />
    <glyph glyph-name="registered" unicode="&#xae;" horiz-adv-x="1674" 
d="M480 1155q-165 -165 -165 -398t165 -399q165 -165 399 -165q233 0 398 165t165 399q0 233 -165 398t-398 165q-234 0 -399 -165zM1414 1292q222 -222 222 -535q0 -314 -222 -535q-222 -222 -535 -222q-314 0 -535 222q-222 221 -222 535q0 313 222 535q221 222 535 222
q313 0 535 -222zM818 569v-151h-195v677h304q109 0 186 -77q78 -77 78 -186q0 -69 -35 -130q-33 -60 -92 -96l108 -188h-223l-86 151h-45zM818 901v-139h109q29 0 50 21q20 20 20 49t-20 49t-50 20h-109z" />
    <glyph glyph-name="macron" unicode="&#xaf;" horiz-adv-x="771" 
d="M741 1312h-721v188h721v-188z" />
    <glyph glyph-name="degree" unicode="&#xb0;" horiz-adv-x="790" 
d="M627 1432q98 -98 98 -238q0 -139 -98 -238q-99 -99 -239 -99t-238 99q-99 99 -99 238q0 140 99 238q98 99 238 99t239 -99zM287 1295q-42 -42 -42 -101q0 -60 42 -101q42 -42 101 -42q60 0 102 42t42 101t-42 101t-102 42q-59 0 -101 -42z" />
    <glyph glyph-name="plusminus" unicode="&#xb1;" 
d="M411 870v232h242v-232h231v-241h-231v-231h-242v231h-230v241h230zM884 0h-703v242h703v-242z" />
    <glyph glyph-name="uni00B2" unicode="&#xb2;" horiz-adv-x="767" 
d="M751 623h-619l10 182q0 48 58 106q38 37 128 101l35 25l33 24q37 28 60 48q58 53 58 93q0 37 -21 61q-22 26 -58 26q-33 0 -58 -28q-21 -24 -30 -58l-234 63q31 114 117 188q90 77 205 77q136 0 229 -97q92 -96 92 -232q0 -112 -86 -204q-33 -36 -82 -73q-19 -14 -44 -31
l-21 -14l-21 -14h249v-243z" />
    <glyph glyph-name="uni00B3" unicode="&#xb3;" horiz-adv-x="731" 
d="M124 1500h519v-241l-94 -114q133 -95 133 -259q0 -132 -93 -226q-94 -94 -226 -94q-85 0 -160 43q-73 43 -116 117l208 122q23 -40 68 -40q32 0 55 23q22 23 22 55q0 31 -21 54q-21 22 -52 24h-98l-80 162l170 132h-235v242z" />
    <glyph glyph-name="acute" unicode="&#xb4;" horiz-adv-x="1024" 
d="M654 1500l-176 -325h-189l111 325h254z" />
    <glyph glyph-name="mu" unicode="&#xb5;" horiz-adv-x="1180" 
d="M1088 0h-290v22q-108 -53 -227 -53t-226 53v-410h-291v1501h291v-627q0 -94 66 -160q66 -67 160 -67t160 67q67 66 67 160v627h290v-1113z" />
    <glyph glyph-name="paragraph" unicode="&#xb6;" horiz-adv-x="1594" 
d="M522 605q-185 0 -317 131q-131 132 -131 317q0 184 131 316q132 131 317 131h1004v-290h-188v-1598h-290v1598h-236v-1598h-290v993z" />
    <glyph glyph-name="periodcentered" unicode="&#xb7;" horiz-adv-x="508" 
d="M330 861q46 -46 46 -111t-46 -111t-111 -46t-111 46t-46 111t46 111t111 46t111 -46z" />
    <glyph glyph-name="periodcentered" unicode="&#x2219;" horiz-adv-x="508" 
d="M330 861q46 -46 46 -111t-46 -111t-111 -46t-111 46t-46 111t46 111t111 46t111 -46z" />
    <glyph glyph-name="cedilla" unicode="&#xb8;" horiz-adv-x="1024" 
d="M591 50l-29 -122q79 -15 126 -77q43 -58 43 -132q0 -84 -64 -140q-72 -64 -200 -64q-147 0 -229 82l104 104q35 -35 108 -35q42 0 68 16q30 18 30 52q0 30 -28 52q-32 24 -80 24q-31 0 -60 -10l61 250h150z" />
    <glyph glyph-name="uni00B9" unicode="&#xb9;" horiz-adv-x="544" 
d="M439 1500v-875h-242v633h-99v242h341z" />
    <glyph glyph-name="ordmasculine" unicode="&#xba;" horiz-adv-x="780" 
d="M627 1432q99 -99 99 -240v-256q0 -140 -99 -240q-100 -100 -240 -100t-240 99q-100 100 -100 241v256q0 141 100 240q99 100 240 100q140 0 240 -100zM317 1261q-28 -29 -28 -69v-256q0 -40 28 -69q29 -29 70 -29q40 0 68 29q29 28 29 69v256q0 40 -29 69q-28 29 -68 29
q-41 0 -70 -29z" />
    <glyph glyph-name="guillemotright" unicode="&#xbb;" horiz-adv-x="1381" 
d="M987 1348l329 -596l-329 -598h-330l328 598l-328 596h330zM442 1348l328 -596l-328 -598h-331l328 598l-328 596h331z" />
    <glyph glyph-name="onequarter" unicode="&#xbc;" horiz-adv-x="1635" 
d="M1173 1500l-546 -1500h-257l547 1500h256zM437 1500v-874h-242v632h-99v242h341zM1375 875l-193 -513h109v147h242v-147h76v-242h-76v-120h-242v120h-389v191l213 564h260z" />
    <glyph glyph-name="onehalf" unicode="&#xbd;" horiz-adv-x="1757" 
d="M206 1258h-98v242h340v-874h-242v632zM638 0h-256l546 1500h257zM1654 0h-619l11 182q0 40 72 115q65 68 133 110l29 18l29 19q32 22 54 41q55 49 55 93q0 37 -21 62q-22 25 -59 25q-32 0 -57 -28q-21 -23 -31 -58l-233 63q30 114 116 188q90 77 205 77q136 0 230 -97
q92 -95 92 -232q0 -111 -86 -204q-33 -36 -83 -73q-19 -14 -43 -31l-22 -14l-21 -14h249v-242z" />
    <glyph glyph-name="threequarters" unicode="&#xbe;" horiz-adv-x="1799" 
d="M114 1500h539v-240l-114 -114q133 -96 133 -259q0 -133 -94 -226q-94 -94 -226 -94q-85 0 -159 43t-117 117l209 121q23 -39 67 -39q32 0 55 23t23 55q0 31 -21 53q-22 23 -53 24h-97l-81 163l171 131h-235v242zM761 0h-256l546 1500h257zM1513 883l-193 -513h108v147
h242v-147h77v-242h-77v-120h-242v120h-389v191l214 564h260z" />
    <glyph glyph-name="questiondown" unicode="&#xbf;" horiz-adv-x="1005" 
d="M413 955q-46 46 -46 111t46 111t112 46q64 0 110 -46t46 -111t-46 -111t-110 -46q-66 0 -112 46zM736 86l251 -145q-163 -280 -460 -280q-198 0 -337 111q-150 121 -150 316q0 141 54 224q47 73 171 152q66 43 89 83q25 43 25 120v121h291v-121q0 -166 -56 -264
q-53 -92 -194 -182q-49 -31 -66 -53q-23 -31 -23 -80q0 -71 65 -107q53 -29 131 -30q130 0 209 135z" />
    <glyph glyph-name="Agrave" unicode="&#xc0;" horiz-adv-x="1101" 
d="M538 1988l111 -325h-188l-177 325h254zM696 1500l387 -1500h-298l-60 229h-404l-59 -229h-299l388 1500h345zM396 519h254l-127 489z" />
    <glyph glyph-name="Aacute" unicode="&#xc1;" horiz-adv-x="1101" 
d="M762 1988l-176 -325h-188l110 325h254zM695 1500l388 -1500h-299l-59 229h-404l-60 -229h-298l388 1500h344zM396 519h254l-127 489z" />
    <glyph glyph-name="Acircumflex" unicode="&#xc2;" horiz-adv-x="1101" 
d="M615 1988l188 -325h-199l-81 156l-81 -156h-199l188 325h184zM695 1500l388 -1500h-298l-60 229h-404l-59 -229h-299l388 1500h344zM396 519h254l-127 489z" />
    <glyph glyph-name="Atilde" unicode="&#xc3;" horiz-adv-x="1100" 
d="M784 0l-59 229h-404l-60 -229h-298l387 1500h344l388 -1500h-298zM649 519l-126 489l-127 -489h253zM574 1713q-20 5 -55 20q-71 29 -105 29q-22 0 -49 -15q-10 -6 -22 -15l-11 -8l-9 -8l-119 142q109 90 210 90q26 0 58 -9q20 -6 55 -21q72 -30 103 -30q23 0 50 16
q10 6 22 16q8 5 20 16l118 -142q-107 -91 -210 -91q-26 0 -56 10z" />
    <glyph glyph-name="Adieresis" unicode="&#xc4;" horiz-adv-x="1101" 
d="M423 1913q36 -36 36 -87t-36 -87t-87 -36q-50 0 -86 36t-36 87t36 87t86 36q51 0 87 -36zM797 1913q36 -36 36 -87t-36 -87t-87 -36t-87 36t-36 87t36 87t87 36t87 -36zM785 0l-60 229h-404l-59 -229h-299l388 1500h345l387 -1500h-298zM650 519l-127 489l-127 -489h254z
" />
    <glyph glyph-name="Aring" unicode="&#xc5;" horiz-adv-x="1104" 
d="M693 1982q65 -65 65 -157q0 -91 -65 -156q-65 -64 -157 -64t-157 64q-65 65 -65 156q0 93 65 157q65 65 157 65t157 -65zM482 1880q-23 -23 -23 -55q0 -31 23 -53q22 -23 54 -23t54 23q22 22 22 53q0 32 -22 55q-22 22 -54 22t-54 -22zM787 0l-60 229h-405l-59 -229h-300
l389 1500h346l388 -1500h-299zM652 519l-128 489l-127 -489h255z" />
    <glyph glyph-name="AE" unicode="&#xc6;" horiz-adv-x="1563" 
d="M463 519h262v592zM725 228h-390l-101 -228h-317l662 1500h917v-290h-481v-315h369v-290h-369v-315h481v-290h-771v228z" />
    <glyph glyph-name="Ccedilla" unicode="&#xc7;" horiz-adv-x="1047" 
d="M562 258q130 0 208 135l252 -145q-135 -231 -370 -271l-12 -50q78 -16 125 -78q44 -58 44 -131q0 -85 -64 -141q-72 -64 -201 -64q-147 0 -229 83l104 104q35 -35 109 -35q41 0 67 16q31 18 31 52q0 29 -29 51q-31 24 -80 24q-30 0 -59 -9l42 174q-192 23 -323 169
q-132 147 -132 343v527q0 213 152 365t365 152q297 0 460 -279l-252 -146q-78 135 -208 135q-93 0 -160 -67q-66 -66 -66 -160v-527q0 -93 66 -160q67 -67 160 -67z" />
    <glyph glyph-name="Egrave" unicode="&#xc8;" horiz-adv-x="894" 
d="M555 1988l111 -325h-189l-176 325h254zM869 1500v-291h-481v-314h369v-290h-369v-314h481v-291h-771v1500h771z" />
    <glyph glyph-name="Eacute" unicode="&#xc9;" horiz-adv-x="893" 
d="M758 1988l-177 -325h-188l110 325h255zM868 1500v-291h-480v-314h369v-290h-369v-314h480v-291h-770v1500h770z" />
    <glyph glyph-name="Ecircumflex" unicode="&#xca;" horiz-adv-x="893" 
d="M575 1988l187 -325h-198l-81 156l-81 -156h-198l187 325h184zM868 1500v-291h-480v-314h369v-290h-369v-314h480v-291h-770v1500h770z" />
    <glyph glyph-name="Edieresis" unicode="&#xcb;" horiz-adv-x="894" 
d="M384 1913q36 -36 36 -87t-36 -87t-87 -36t-87 36q-37 36 -37 87t37 87q36 36 87 36t87 -36zM757 1913q36 -36 36 -87t-36 -87t-87 -36t-87 36t-36 87t36 87t87 36t87 -36zM388 1209v-314h369v-290h-369v-314h481v-291h-771v1500h771v-291h-481z" />
    <glyph glyph-name="Igrave" unicode="&#xcc;" horiz-adv-x="512" 
d="M81 1500h291v-1500h-291v1500zM232 1988l110 -325h-188l-177 325h255z" />
    <glyph glyph-name="Iacute" unicode="&#xcd;" horiz-adv-x="510" 
d="M492 1988l-177 -325h-188l111 325h254zM98 1500h290v-1500h-290v1500z" />
    <glyph glyph-name="Icircumflex" unicode="&#xce;" horiz-adv-x="554" 
d="M112 1500h289v-1500h-289v1500zM349 1988l187 -325h-198l-81 156l-82 -156h-198l187 325h185z" />
    <glyph glyph-name="Idieresis" unicode="&#xcf;" horiz-adv-x="615" 
d="M187 1913q36 -36 36 -87t-36 -87t-87 -36t-87 36t-36 87t36 87t87 36t87 -36zM561 1913q36 -36 36 -87t-36 -87t-87 -36t-87 36q-37 36 -37 87t37 87q36 36 87 36t87 -36zM142 1500h290v-1500h-290v1500z" />
    <glyph glyph-name="Eth" unicode="&#xd0;" horiz-adv-x="1234" 
d="M-34 629v242h167v629h502q207 0 354 -148q148 -147 148 -355v-510q0 -201 -143 -344q-142 -143 -343 -143h-518v629h-167zM423 871h167v-242h-167v-338h228q81 0 138 57q58 58 58 139v510q0 87 -62 150q-63 62 -150 62h-212v-338z" />
    <glyph glyph-name="Ntilde" unicode="&#xd1;" horiz-adv-x="1226" 
d="M643 1713q-20 5 -55 20q-71 29 -104 29q-23 0 -49 -15q-11 -6 -23 -15q-8 -7 -20 -16l-118 142q109 90 210 90q40 0 112 -30l27 -11l26 -9q29 -10 51 -10t49 16q10 6 22 16l11 8l10 8l118 -142q-109 -91 -210 -91q-26 0 -57 10zM388 835v-835h-290v1500h281l417 -836v836
h290v-1500h-281z" />
    <glyph glyph-name="Ograve" unicode="&#xd2;" horiz-adv-x="1177" 
d="M288 1989h254l111 -325h-189zM928 1379q152 -152 152 -365v-528q0 -213 -152 -365t-366 -152q-213 0 -365 152t-152 365v528q0 213 152 365t365 152q214 0 366 -152zM402 1174q-67 -67 -67 -160v-528q0 -93 67 -160t160 -67q94 0 161 67q66 67 66 160v528q0 93 -66 160
q-67 66 -161 66q-93 0 -160 -66z" />
    <glyph glyph-name="Oacute" unicode="&#xd3;" horiz-adv-x="1177" 
d="M660 1664h-188l111 325h254zM562 1531q214 0 366 -152t152 -365v-528q0 -213 -152 -365t-366 -152q-213 0 -365 152t-152 365v528q0 213 152 365t365 152zM562 1240q-93 0 -160 -66q-67 -67 -67 -160v-528q0 -93 67 -160t160 -67q94 0 161 67q66 67 66 160v528
q0 93 -66 160q-67 66 -161 66z" />
    <glyph glyph-name="Ocircumflex" unicode="&#xd4;" horiz-adv-x="1177" 
d="M282 1664l189 325h184l187 -325h-199l-81 155l-81 -155h-199zM562 1531q214 0 366 -152t152 -365v-528q0 -213 -152 -365t-366 -152q-213 0 -365 152t-152 365v528q0 213 152 365t365 152zM562 1240q-93 0 -159 -66q-67 -67 -67 -160v-528q0 -93 67 -160q66 -67 159 -67
q94 0 161 67q66 67 66 160v528q0 93 -66 160q-67 66 -161 66z" />
    <glyph glyph-name="Otilde" unicode="&#xd5;" horiz-adv-x="1176" 
d="M559 1734q-72 29 -105 29q-23 0 -49 -16q-11 -6 -23 -15l-10 -8l-10 -8l-119 142q109 91 211 91q40 0 113 -30l27 -11l26 -9q29 -10 50 -10q23 0 50 16q10 6 22 15q8 6 20 17l119 -142q-109 -91 -211 -91q-40 0 -111 30zM562 1531q214 0 366 -152q151 -152 151 -365v-528
q0 -213 -151 -365q-152 -152 -366 -152q-213 0 -365 152t-152 365v528q0 213 152 365t365 152zM562 1240q-93 0 -160 -66q-67 -67 -67 -160v-528q0 -93 67 -160t160 -67q94 0 160 67q67 67 67 160v528q0 93 -67 160q-66 66 -160 66z" />
    <glyph glyph-name="Odieresis" unicode="&#xd6;" horiz-adv-x="1177" 
d="M463 1913q35 -36 35 -87t-35 -87q-36 -36 -87 -36t-87 36t-36 87t36 87q36 37 87 37t87 -37zM836 1913q36 -36 36 -87t-36 -87t-87 -36q-50 0 -87 36q-36 36 -36 87t36 87q37 37 87 37q51 0 87 -37zM562 1531q214 0 366 -152t152 -365v-528q0 -213 -152 -365t-366 -152
q-213 0 -365 152t-152 365v528q0 213 152 365t365 152zM562 1240q-93 0 -160 -66q-66 -67 -66 -160v-528q0 -93 66 -160q67 -67 160 -67q94 0 161 67q66 67 66 160v528q0 93 -66 160q-67 66 -161 66z" />
    <glyph glyph-name="multiply" unicode="&#xd7;" horiz-adv-x="1124" 
d="M238 1247l327 -326l327 326l170 -170l-326 -327l326 -327l-170 -171l-327 327l-327 -327l-171 171l327 327l-327 327z" />
    <glyph glyph-name="Oslash" unicode="&#xd8;" horiz-adv-x="1199" 
d="M19 -126l156 300q-105 138 -105 312v528q0 213 152 365t365 152q140 0 262 -71l86 165h221l-156 -299q105 -139 105 -312v-528q0 -213 -152 -365t-366 -152q-139 0 -261 70l-86 -165h-221zM361 527l352 675q-57 38 -126 38q-93 0 -160 -67q-66 -66 -66 -159v-487z
M814 973l-352 -676q57 -38 125 -38q94 0 161 67q66 66 66 160v487z" />
    <glyph glyph-name="Ugrave" unicode="&#xd9;" horiz-adv-x="1249" 
d="M325 1989h255l110 -325h-188zM83 1500h290v-1014q0 -93 67 -160t160 -67t160 67t67 160v1014h291v-1014q0 -213 -153 -365q-152 -152 -365 -152t-365 152t-152 365v1014z" />
    <glyph glyph-name="Uacute" unicode="&#xda;" horiz-adv-x="1249" 
d="M698 1664h-188l111 325h254zM1118 486q0 -213 -152 -365t-366 -152q-213 0 -365 152t-152 365v1014h291v-1014q0 -93 67 -160q66 -67 159 -67q94 0 161 67q66 67 66 160v1014h291v-1014z" />
    <glyph glyph-name="Ucircumflex" unicode="&#xdb;" horiz-adv-x="1248" 
d="M320 1664l188 325h184l188 -325h-199l-81 155l-81 -155h-199zM1117 486q0 -213 -152 -365t-365 -152t-365 152t-152 365v1014h290v-1014q0 -93 67 -160t160 -67t160 67t67 160v1014h290v-1014z" />
    <glyph glyph-name="Udieresis" unicode="&#xdc;" horiz-adv-x="1249" 
d="M500 1913q36 -36 36 -87t-36 -87t-87 -36t-87 36t-36 87t36 87q36 37 87 37t87 -37zM874 1913q36 -36 36 -87t-36 -87t-87 -36t-87 36t-36 87t36 87q36 37 87 37t87 -37zM1118 486q0 -213 -153 -365q-152 -152 -365 -152t-365 152t-152 365v1014h290v-1014q0 -93 67 -160
t160 -67t160 67t67 160v1014h291v-1014z" />
    <glyph glyph-name="Yacute" unicode="&#xdd;" horiz-adv-x="1058" 
d="M756 1988l-177 -325h-188l111 325h254zM285 1500l222 -476l222 476h319l-396 -852v-648h-290v648l-397 852h320z" />
    <glyph glyph-name="Thorn" unicode="&#xde;" horiz-adv-x="1134" 
d="M98 1500h290v-302h263q184 0 316 -132q131 -131 131 -316t-131 -316q-132 -132 -316 -132h-263v-302h-290v1500zM651 593q64 0 110 46q47 47 47 111t-47 111q-46 46 -110 46h-263v-314h263z" />
    <glyph glyph-name="germandbls" unicode="&#xdf;" horiz-adv-x="1084" 
d="M854 1398q133 -134 133 -322q0 -179 -122 -310q122 -132 122 -311q0 -188 -133 -321q-134 -134 -322 -134v291q68 0 116 48q49 48 49 116q0 69 -49 117q-48 48 -116 48v291q68 0 116 48q49 48 49 117q0 68 -49 116q-48 48 -116 48t-117 -48q-48 -48 -48 -116v-1076h-290
v1076q0 188 133 322q134 133 322 133t322 -133z" />
    <glyph glyph-name="agrave" unicode="&#xe0;" horiz-adv-x="1101" 
d="M538 1988l111 -325h-188l-177 325h254zM696 1500l387 -1500h-298l-60 229h-404l-59 -229h-299l388 1500h345zM396 519h254l-127 489z" />
    <glyph glyph-name="aacute" unicode="&#xe1;" horiz-adv-x="1101" 
d="M762 1988l-176 -325h-188l110 325h254zM695 1500l388 -1500h-299l-59 229h-404l-60 -229h-298l388 1500h344zM396 519h254l-127 489z" />
    <glyph glyph-name="acircumflex" unicode="&#xe2;" horiz-adv-x="1101" 
d="M615 1988l188 -325h-199l-81 156l-81 -156h-199l188 325h184zM695 1500l388 -1500h-298l-60 229h-404l-59 -229h-299l388 1500h344zM396 519h254l-127 489z" />
    <glyph glyph-name="atilde" unicode="&#xe3;" horiz-adv-x="1100" 
d="M784 0l-59 229h-404l-60 -229h-298l387 1500h344l388 -1500h-298zM649 519l-126 489l-127 -489h253zM574 1713q-20 5 -55 20q-71 29 -105 29q-22 0 -49 -15q-10 -6 -22 -15l-11 -8l-9 -8l-119 142q109 90 210 90q26 0 58 -9q20 -6 55 -21q72 -30 103 -30q23 0 50 16
q10 6 22 16q8 5 20 16l118 -142q-107 -91 -210 -91q-26 0 -56 10z" />
    <glyph glyph-name="adieresis" unicode="&#xe4;" horiz-adv-x="1101" 
d="M423 1913q36 -36 36 -87t-36 -87t-87 -36q-50 0 -86 36t-36 87t36 87t86 36q51 0 87 -36zM797 1913q36 -36 36 -87t-36 -87t-87 -36t-87 36t-36 87t36 87t87 36t87 -36zM785 0l-60 229h-404l-59 -229h-299l388 1500h345l387 -1500h-298zM650 519l-127 489l-127 -489h254z
" />
    <glyph glyph-name="aring" unicode="&#xe5;" horiz-adv-x="1104" 
d="M693 1982q65 -65 65 -157q0 -91 -65 -156q-65 -64 -157 -64t-157 64q-65 65 -65 156q0 93 65 157q65 65 157 65t157 -65zM482 1880q-23 -23 -23 -55q0 -31 23 -53q22 -23 54 -23t54 23q22 22 22 53q0 32 -22 55q-22 22 -54 22t-54 -22zM787 0l-60 229h-405l-59 -229h-300
l389 1500h346l388 -1500h-299zM652 519l-128 489l-127 -489h255z" />
    <glyph glyph-name="ae" unicode="&#xe6;" horiz-adv-x="1563" 
d="M463 519h262v592zM725 228h-390l-101 -228h-317l662 1500h917v-290h-481v-315h369v-290h-369v-315h481v-290h-771v228z" />
    <glyph glyph-name="ccedilla" unicode="&#xe7;" horiz-adv-x="1046" 
d="M561 258q130 0 208 135l252 -145q-135 -231 -370 -271l-12 -50q78 -16 125 -78q44 -58 44 -131q0 -85 -64 -141q-72 -64 -201 -64q-147 0 -229 83l104 104q35 -35 109 -35q41 0 67 16q31 18 31 52q0 29 -29 51q-31 24 -80 24q-30 0 -59 -9l42 174q-192 23 -323 169
q-132 147 -132 343v527q0 213 152 365t365 152q297 0 460 -279l-252 -146q-78 135 -208 135q-93 0 -160 -67q-66 -66 -66 -160v-527q0 -93 66 -160q67 -67 160 -67z" />
    <glyph glyph-name="egrave" unicode="&#xe8;" horiz-adv-x="892" 
d="M553 1988l111 -325h-189l-176 325h254zM867 1500v-291h-481v-314h369v-290h-369v-314h481v-291h-771v1500h771z" />
    <glyph glyph-name="eacute" unicode="&#xe9;" horiz-adv-x="891" 
d="M756 1988l-177 -325h-188l110 325h255zM866 1500v-291h-480v-314h369v-290h-369v-314h480v-291h-770v1500h770z" />
    <glyph glyph-name="ecircumflex" unicode="&#xea;" horiz-adv-x="891" 
d="M573 1988l187 -325h-198l-81 156l-81 -156h-198l187 325h184zM866 1500v-291h-480v-314h369v-290h-369v-314h480v-291h-770v1500h770z" />
    <glyph glyph-name="edieresis" unicode="&#xeb;" horiz-adv-x="892" 
d="M382 1913q36 -36 36 -87t-36 -87t-87 -36t-87 36q-37 36 -37 87t37 87q36 36 87 36t87 -36zM755 1913q36 -36 36 -87t-36 -87t-87 -36t-87 36t-36 87t36 87t87 36t87 -36zM386 1209v-314h369v-290h-369v-314h481v-291h-771v1500h771v-291h-481z" />
    <glyph glyph-name="igrave" unicode="&#xec;" horiz-adv-x="512" 
d="M81 1500h291v-1500h-291v1500zM232 1988l110 -325h-188l-177 325h255z" />
    <glyph glyph-name="iacute" unicode="&#xed;" horiz-adv-x="508" 
d="M490 1988l-177 -325h-188l111 325h254zM96 1500h290v-1500h-290v1500z" />
    <glyph glyph-name="icircumflex" unicode="&#xee;" horiz-adv-x="479" 
d="M37 1500h289v-1500h-289v1500zM274 1988l187 -325h-198l-81 156l-82 -156h-198l187 325h185z" />
    <glyph glyph-name="idieresis" unicode="&#xef;" horiz-adv-x="485" 
d="M112 1913q36 -36 36 -87t-36 -87t-87 -36t-87 36t-36 87t36 87t87 36t87 -36zM486 1913q36 -36 36 -87t-36 -87t-87 -36t-87 36q-37 36 -37 87t37 87q36 36 87 36t87 -36zM67 1500h290v-1500h-290v1500z" />
    <glyph glyph-name="eth" unicode="&#xf0;" horiz-adv-x="1234" 
d="M-34 629v242h167v629h502q207 0 354 -148q148 -147 148 -355v-510q0 -201 -143 -344q-142 -143 -343 -143h-518v629h-167zM423 871h167v-242h-167v-338h228q81 0 138 57q58 58 58 139v510q0 87 -62 150q-63 62 -150 62h-212v-338z" />
    <glyph glyph-name="ntilde" unicode="&#xf1;" horiz-adv-x="1224" 
d="M641 1713q-20 5 -55 20q-71 29 -104 29q-23 0 -49 -15q-11 -6 -23 -15q-8 -7 -20 -16l-118 142q109 90 210 90q40 0 112 -30l27 -11l26 -9q29 -10 51 -10t49 16q10 6 22 16l11 8l10 8l118 -142q-109 -91 -210 -91q-26 0 -57 10zM386 835v-835h-290v1500h281l417 -836v836
h290v-1500h-281z" />
    <glyph glyph-name="ograve" unicode="&#xf2;" horiz-adv-x="1176" 
d="M287 1989h254l111 -325h-189zM927 1379q152 -152 152 -365v-528q0 -213 -152 -365t-366 -152q-213 0 -365 152t-152 365v528q0 213 152 365t365 152q214 0 366 -152zM401 1174q-67 -67 -67 -160v-528q0 -93 67 -160t160 -67q94 0 161 67q66 67 66 160v528q0 93 -66 160
q-67 66 -161 66q-93 0 -160 -66z" />
    <glyph glyph-name="oacute" unicode="&#xf3;" horiz-adv-x="1176" 
d="M659 1664h-188l111 325h254zM561 1531q214 0 366 -152t152 -365v-528q0 -213 -152 -365t-366 -152q-213 0 -365 152t-152 365v528q0 213 152 365t365 152zM561 1240q-93 0 -160 -66q-67 -67 -67 -160v-528q0 -93 67 -160t160 -67q94 0 161 67q66 67 66 160v528
q0 93 -66 160q-67 66 -161 66z" />
    <glyph glyph-name="ocircumflex" unicode="&#xf4;" horiz-adv-x="1176" 
d="M281 1664l189 325h184l187 -325h-199l-81 155l-81 -155h-199zM561 1531q214 0 366 -152t152 -365v-528q0 -213 -152 -365t-366 -152q-213 0 -365 152t-152 365v528q0 213 152 365t365 152zM561 1240q-93 0 -159 -66q-67 -67 -67 -160v-528q0 -93 67 -160q66 -67 159 -67
q94 0 161 67q66 67 66 160v528q0 93 -66 160q-67 66 -161 66z" />
    <glyph glyph-name="otilde" unicode="&#xf5;" horiz-adv-x="1175" 
d="M558 1734q-72 29 -105 29q-23 0 -49 -16q-11 -6 -23 -15l-10 -8l-10 -8l-119 142q109 91 211 91q40 0 113 -30l27 -11l26 -9q29 -10 50 -10q23 0 50 16q10 6 22 15q8 6 20 17l119 -142q-109 -91 -211 -91q-40 0 -111 30zM561 1531q214 0 366 -152q151 -152 151 -365v-528
q0 -213 -151 -365q-152 -152 -366 -152q-213 0 -365 152t-152 365v528q0 213 152 365t365 152zM561 1240q-93 0 -160 -66q-67 -67 -67 -160v-528q0 -93 67 -160t160 -67q94 0 160 67q67 67 67 160v528q0 93 -67 160q-66 66 -160 66z" />
    <glyph glyph-name="odieresis" unicode="&#xf6;" horiz-adv-x="1176" 
d="M462 1913q35 -36 35 -87t-35 -87q-36 -36 -87 -36t-87 36t-36 87t36 87q36 37 87 37t87 -37zM835 1913q36 -36 36 -87t-36 -87t-87 -36q-50 0 -87 36q-36 36 -36 87t36 87q37 37 87 37q51 0 87 -37zM561 1531q214 0 366 -152t152 -365v-528q0 -213 -152 -365t-366 -152
q-213 0 -365 152t-152 365v528q0 213 152 365t365 152zM561 1240q-93 0 -160 -66q-66 -67 -66 -160v-528q0 -93 66 -160q67 -67 160 -67q94 0 161 67q66 67 66 160v528q0 93 -66 160q-67 66 -161 66z" />
    <glyph glyph-name="divide" unicode="&#xf7;" 
d="M654 440q46 -46 46 -112q0 -64 -46 -110t-111 -46t-111 46q-46 45 -46 110q0 66 46 112q46 45 111 45t111 -45zM654 1282q46 -46 46 -110q0 -66 -46 -112t-111 -46t-111 46t-46 112q0 64 46 110q46 47 111 47t111 -47zM164 870h758v-240h-758v240z" />
    <glyph glyph-name="oslash" unicode="&#xf8;" horiz-adv-x="1199" 
d="M19 -126l156 300q-105 138 -105 312v528q0 213 152 365t365 152q140 0 262 -71l86 165h221l-156 -299q105 -139 105 -312v-528q0 -213 -152 -365t-366 -152q-139 0 -261 70l-86 -165h-221zM361 527l352 675q-57 38 -126 38q-93 0 -160 -67q-66 -66 -66 -159v-487z
M814 973l-352 -676q57 -38 125 -38q94 0 161 67q66 66 66 160v487z" />
    <glyph glyph-name="ugrave" unicode="&#xf9;" horiz-adv-x="1249" 
d="M325 1989h255l110 -325h-188zM83 1500h290v-1014q0 -93 67 -160t160 -67t160 67t67 160v1014h291v-1014q0 -213 -153 -365q-152 -152 -365 -152t-365 152t-152 365v1014z" />
    <glyph glyph-name="uacute" unicode="&#xfa;" horiz-adv-x="1249" 
d="M698 1664h-188l111 325h254zM1118 486q0 -213 -152 -365t-366 -152q-213 0 -365 152t-152 365v1014h291v-1014q0 -93 67 -160q66 -67 159 -67q94 0 161 67q66 67 66 160v1014h291v-1014z" />
    <glyph glyph-name="ucircumflex" unicode="&#xfb;" horiz-adv-x="1248" 
d="M320 1664l188 325h184l188 -325h-199l-81 155l-81 -155h-199zM1117 486q0 -213 -152 -365t-365 -152t-365 152t-152 365v1014h290v-1014q0 -93 67 -160t160 -67t160 67t67 160v1014h290v-1014z" />
    <glyph glyph-name="udieresis" unicode="&#xfc;" horiz-adv-x="1249" 
d="M500 1913q36 -36 36 -87t-36 -87t-87 -36t-87 36t-36 87t36 87q36 37 87 37t87 -37zM874 1913q36 -36 36 -87t-36 -87t-87 -36t-87 36t-36 87t36 87q36 37 87 37t87 -37zM1118 486q0 -213 -153 -365q-152 -152 -365 -152t-365 152t-152 365v1014h290v-1014q0 -93 67 -160
t160 -67t160 67t67 160v1014h291v-1014z" />
    <glyph glyph-name="yacute" unicode="&#xfd;" horiz-adv-x="1058" 
d="M756 1988l-177 -325h-188l111 325h254zM285 1500l222 -476l222 476h319l-396 -852v-648h-290v648l-397 852h320z" />
    <glyph glyph-name="thorn" unicode="&#xfe;" horiz-adv-x="1132" 
d="M96 1500h290v-302h263q184 0 316 -132q131 -131 131 -316t-131 -316q-132 -132 -316 -132h-263v-302h-290v1500zM649 593q64 0 110 46q47 47 47 111t-47 111q-46 46 -110 46h-263v-314h263z" />
    <glyph glyph-name="ydieresis" unicode="&#xff;" horiz-adv-x="1058" 
d="M1048 1500l-396 -852v-648h-291v648l-396 852h320l221 -476l222 476h320zM407 1913q36 -36 36 -87t-36 -87t-87 -36t-87 36t-36 87t36 87t87 36t87 -36zM780 1913q36 -36 36 -87t-36 -87t-87 -36t-87 36t-36 87t36 87t87 36t87 -36z" />
    <glyph glyph-name="Amacron" unicode="&#x100;" horiz-adv-x="1100" 
d="M694 1500l388 -1500h-298l-59 229h-405l-58 -229h-299l388 1500h343zM396 519h253l-127 489zM287 1924h471v-197h-471v197z" />
    <glyph glyph-name="amacron" unicode="&#x101;" horiz-adv-x="1100" 
d="M694 1500l388 -1500h-298l-59 229h-405l-58 -229h-299l388 1500h343zM396 519h253l-127 489zM287 1924h471v-197h-471v197z" />
    <glyph glyph-name="Abreve" unicode="&#x102;" horiz-adv-x="1100" 
d="M695 1500l387 -1500h-298l-59 229h-405l-59 -229h-298l388 1500h344zM396 519h253l-126 489zM790 1959q0 -110 -79 -189q-78 -78 -188 -78q-111 0 -189 78q-78 79 -78 189h169q0 -40 29 -69q28 -28 69 -28q40 0 69 28q28 29 28 69h170z" />
    <glyph glyph-name="abreve" unicode="&#x103;" horiz-adv-x="1100" 
d="M695 1500l387 -1500h-298l-59 229h-405l-59 -229h-298l388 1500h344zM396 519h253l-126 489zM790 1959q0 -110 -79 -189q-78 -78 -188 -78q-111 0 -189 78q-78 79 -78 189h169q0 -40 29 -69q28 -28 69 -28q40 0 69 28q28 29 28 69h170z" />
    <glyph glyph-name="Aogonek" unicode="&#x104;" horiz-adv-x="1103" 
d="M649 519l-127 489l-126 -489h253zM1162 -407q-68 -51 -162 -51q-128 0 -195 55q-62 49 -62 133q0 140 147 270h-106l-60 229h-403l-59 -229h-299l387 1500h345l387 -1500q-62 -48 -98 -97q-47 -65 -47 -129q0 -71 63 -71q41 0 65 19z" />
    <glyph glyph-name="aogonek" unicode="&#x105;" horiz-adv-x="1103" 
d="M649 519l-127 489l-126 -489h253zM1162 -407q-68 -51 -162 -51q-128 0 -195 55q-62 49 -62 133q0 140 147 270h-106l-60 229h-403l-59 -229h-299l387 1500h345l387 -1500q-62 -48 -98 -97q-47 -65 -47 -129q0 -71 63 -71q41 0 65 19z" />
    <glyph glyph-name="Cacute" unicode="&#x106;" horiz-adv-x="1047" 
d="M402 1174q-67 -67 -67 -160v-528q0 -93 67 -160t160 -67q131 0 209 135l251 -146q-163 -279 -460 -279q-213 0 -365 152t-152 365v528q0 213 152 365t365 152q297 0 460 -280l-251 -145q-78 134 -209 134q-93 0 -160 -66zM616 1664h-188l110 325h255z" />
    <glyph glyph-name="cacute" unicode="&#x107;" horiz-adv-x="1046" 
d="M401 1174q-67 -67 -67 -160v-528q0 -93 67 -160t160 -67q131 0 209 135l251 -146q-163 -279 -460 -279q-213 0 -365 152t-152 365v528q0 213 152 365t365 152q297 0 460 -280l-251 -145q-78 134 -209 134q-93 0 -160 -66zM615 1664h-188l110 325h255z" />
    <glyph glyph-name="Ccircumflex" unicode="&#x108;" horiz-adv-x="1047" 
d="M402 1174q-67 -67 -67 -160v-528q0 -93 67 -160t160 -67q130 0 208 135l252 -146q-163 -279 -460 -279q-213 0 -365 152t-152 365v528q0 213 152 365t365 152q297 0 460 -280l-252 -145q-78 134 -208 134q-93 0 -160 -66zM276 1664l188 325h185l187 -325h-198l-82 155
l-81 -155h-199z" />
    <glyph glyph-name="ccircumflex" unicode="&#x109;" horiz-adv-x="1046" 
d="M401 1174q-67 -67 -67 -160v-528q0 -93 67 -160t160 -67q130 0 208 135l252 -146q-163 -279 -460 -279q-213 0 -365 152t-152 365v528q0 213 152 365t365 152q297 0 460 -280l-252 -145q-78 134 -208 134q-93 0 -160 -66zM275 1664l188 325h185l187 -325h-198l-82 155
l-81 -155h-199z" />
    <glyph glyph-name="Cdotaccent" unicode="&#x10a;" horiz-adv-x="1047" 
d="M402 1174q-67 -67 -67 -160v-528q0 -93 67 -160t160 -67q131 0 209 135l251 -146q-163 -279 -460 -279q-213 0 -365 152t-152 365v528q0 213 152 365t365 152q297 0 460 -280l-251 -145q-78 134 -209 134q-93 0 -160 -66zM668 1937q46 -46 46 -111t-46 -110
q-46 -46 -111 -46t-111 46q-46 45 -46 110t46 111t111 46t111 -46z" />
    <glyph glyph-name="cdotaccent" unicode="&#x10b;" horiz-adv-x="1046" 
d="M401 1174q-67 -67 -67 -160v-528q0 -93 67 -160t160 -67q131 0 209 135l251 -146q-163 -279 -460 -279q-213 0 -365 152t-152 365v528q0 213 152 365t365 152q297 0 460 -280l-251 -145q-78 134 -209 134q-93 0 -160 -66zM667 1937q46 -46 46 -111t-46 -110
q-46 -46 -111 -46t-111 46q-46 45 -46 110t46 111t111 46t111 -46z" />
    <glyph glyph-name="Ccaron" unicode="&#x10c;" horiz-adv-x="1047" 
d="M402 1174q-67 -67 -67 -160v-528q0 -93 67 -160t160 -67q130 0 208 135l252 -146q-163 -279 -460 -279q-213 0 -365 152t-152 365v528q0 213 152 365t365 152q297 0 460 -280l-252 -145q-78 134 -208 134q-93 0 -160 -66zM475 1989l81 -156l82 156h198l-187 -325h-185
l-188 325h199z" />
    <glyph glyph-name="ccaron" unicode="&#x10d;" horiz-adv-x="1046" 
d="M401 1174q-67 -67 -67 -160v-528q0 -93 67 -160t160 -67q130 0 208 135l252 -146q-163 -279 -460 -279q-213 0 -365 152t-152 365v528q0 213 152 365t365 152q297 0 460 -280l-252 -145q-78 134 -208 134q-93 0 -160 -66zM474 1989l81 -156l82 156h198l-187 -325h-185
l-188 325h199z" />
    <glyph glyph-name="Dcaron" unicode="&#x10e;" horiz-adv-x="1164" 
d="M98 1500h503q207 0 354 -148q148 -147 148 -355v-510q0 -201 -143 -344t-344 -143h-518v1500zM388 291h228q81 0 139 57q57 58 57 139v510q0 87 -62 150q-63 62 -149 62h-213v-918zM520 1988l81 -155l80 155h199l-188 -325h-183l-188 325h199z" />
    <glyph glyph-name="dcaron" unicode="&#x10f;" horiz-adv-x="1162" 
d="M96 1500h503q207 0 354 -148q148 -147 148 -355v-510q0 -201 -143 -344t-344 -143h-518v1500zM386 291h228q81 0 139 57q57 58 57 139v510q0 87 -62 150q-63 62 -149 62h-213v-918zM518 1988l81 -155l80 155h199l-188 -325h-183l-188 325h199z" />
    <glyph glyph-name="Dcroat" unicode="&#x110;" horiz-adv-x="1234" 
d="M-34 629v242h167v629h502q207 0 354 -148q148 -147 148 -355v-510q0 -201 -143 -344q-142 -143 -343 -143h-518v629h-167zM423 871h167v-242h-167v-338h228q81 0 138 57q58 58 58 139v510q0 87 -62 150q-63 62 -150 62h-212v-338z" />
    <glyph glyph-name="dcroat" unicode="&#x111;" horiz-adv-x="1234" 
d="M-34 629v242h167v629h502q207 0 354 -148q148 -147 148 -355v-510q0 -201 -143 -344q-142 -143 -343 -143h-518v629h-167zM423 871h167v-242h-167v-338h228q81 0 138 57q58 58 58 139v510q0 87 -62 150q-63 62 -150 62h-212v-338z" />
    <glyph glyph-name="Emacron" unicode="&#x112;" horiz-adv-x="894" 
d="M869 1500v-290h-481v-315h369v-290h-369v-315h481v-290h-771v1500h771zM248 1924h471v-197h-471v197z" />
    <glyph glyph-name="emacron" unicode="&#x113;" horiz-adv-x="892" 
d="M867 1500v-290h-481v-315h369v-290h-369v-315h481v-290h-771v1500h771zM246 1924h471v-197h-471v197z" />
    <glyph glyph-name="Ebreve" unicode="&#x114;" horiz-adv-x="894" 
d="M869 1500v-290h-481v-315h369v-290h-369v-315h481v-290h-771v1500h771zM751 1959q0 -110 -79 -188q-78 -78 -189 -78q-110 0 -188 78t-78 188h169q0 -40 29 -69q28 -28 68 -28q41 0 70 28q28 29 28 69h170z" />
    <glyph glyph-name="ebreve" unicode="&#x115;" horiz-adv-x="892" 
d="M867 1500v-290h-481v-315h369v-290h-369v-315h481v-290h-771v1500h771zM749 1959q0 -110 -79 -188q-78 -78 -189 -78q-110 0 -188 78t-78 188h169q0 -40 29 -69q28 -28 68 -28q41 0 70 28q28 29 28 69h170z" />
    <glyph glyph-name="Edotaccent" unicode="&#x116;" horiz-adv-x="894" 
d="M869 1500v-290h-481v-315h369v-290h-369v-315h481v-290h-771v1500h771zM594 1937q47 -46 47 -111t-47 -110q-46 -46 -111 -46q-64 0 -110 46q-47 45 -47 110t47 111q46 46 110 46q65 0 111 -46z" />
    <glyph glyph-name="edotaccent" unicode="&#x117;" horiz-adv-x="892" 
d="M867 1500v-290h-481v-315h369v-290h-369v-315h481v-290h-771v1500h771zM592 1937q47 -46 47 -111t-47 -110q-46 -46 -111 -46q-64 0 -110 46q-47 45 -47 110t47 111q46 46 110 46q65 0 111 -46z" />
    <glyph glyph-name="Eogonek" unicode="&#x118;" horiz-adv-x="908" 
d="M947 -408q-67 -51 -161 -51q-128 0 -196 55q-62 49 -62 133q0 140 148 271h-578v1500h769v-291h-479v-314h368v-290h-368v-315h479v-290q-61 -48 -97 -98q-48 -65 -48 -129q0 -71 64 -71q40 0 64 19z" />
    <glyph glyph-name="eogonek" unicode="&#x119;" horiz-adv-x="906" 
d="M945 -408q-67 -51 -161 -51q-128 0 -196 55q-62 49 -62 133q0 140 148 271h-578v1500h769v-291h-479v-314h368v-290h-368v-315h479v-290q-61 -48 -97 -98q-48 -65 -48 -129q0 -71 64 -71q40 0 64 19z" />
    <glyph glyph-name="Ecaron" unicode="&#x11a;" horiz-adv-x="894" 
d="M869 1500v-290h-481v-315h369v-290h-369v-315h481v-290h-771v1500h771zM403 1988l81 -155l81 155h199l-188 -325h-184l-188 325h199z" />
    <glyph glyph-name="ecaron" unicode="&#x11b;" horiz-adv-x="892" 
d="M867 1500v-290h-481v-315h369v-290h-369v-315h481v-290h-771v1500h771zM401 1988l81 -155l81 155h199l-188 -325h-184l-188 325h199z" />
    <glyph glyph-name="Gcircumflex" unicode="&#x11c;" horiz-adv-x="1177" 
d="M197 121q-152 152 -152 365v528q0 213 152 365t365 152q297 0 460 -280l-126 -73l-125 -72q-78 134 -209 134q-93 0 -160 -66q-67 -67 -67 -160v-528q0 -93 67 -160t160 -67q23 0 58 6q41 7 76 19q92 31 93 79v241h-295v291h586v-896h-130l-82 45q-139 -75 -306 -75
q-213 0 -365 152zM277 1664l188 325h184l188 -325h-199l-81 155l-81 -155h-199z" />
    <glyph glyph-name="gcircumflex" unicode="&#x11d;" horiz-adv-x="1116" 
d="M44 1014q0 213 152 365t365 152q297 0 460 -280l-251 -144q-78 134 -209 134q-93 0 -160 -67t-67 -160v-528q0 -93 67 -160t160 -67q94 0 161 67q66 67 66 160v119h-295v290h586v-409q0 -213 -152 -365t-366 -152q-213 0 -365 152t-152 365v528zM276 1664l188 325h184
l188 -325h-199l-81 155l-81 -155h-199z" />
    <glyph glyph-name="Gbreve" unicode="&#x11e;" horiz-adv-x="1177" 
d="M197 121q-152 152 -152 365v528q0 213 152 365t366 152q295 0 459 -280l-125 -73l-126 -72q-78 134 -208 134q-94 0 -161 -66q-67 -67 -67 -160v-528q0 -93 67 -160t161 -67q22 0 57 6q41 7 75 19q93 31 94 79v241h-295v291h586v-896h-130l-83 45q-137 -75 -304 -75
q-214 0 -366 152zM824 1960q0 -111 -78 -189t-189 -78t-189 78q-79 78 -79 189h170q0 -41 28 -69q29 -29 70 -29q40 0 69 29q28 28 28 69h170z" />
    <glyph glyph-name="gbreve" unicode="&#x11f;" horiz-adv-x="1116" 
d="M44 1014q0 213 152 365t365 152q297 0 460 -280l-251 -144q-78 134 -209 134q-93 0 -160 -67t-67 -160v-528q0 -93 67 -160t160 -67q94 0 160 67q67 67 67 160v119h-295v290h586v-409q0 -213 -152 -365t-366 -152q-213 0 -365 152t-152 365v528zM823 1961
q0 -111 -78 -190q-79 -78 -189 -78q-111 0 -189 78q-79 79 -79 190h170q0 -41 28 -70q29 -29 70 -29q40 0 69 29q28 29 28 70h170z" />
    <glyph glyph-name="Gdotaccent" unicode="&#x120;" horiz-adv-x="1177" 
d="M197 121q-152 152 -152 365v528q0 213 152 365t365 152q297 0 460 -280l-126 -73l-125 -72q-78 134 -209 134q-93 0 -160 -66q-67 -67 -67 -160v-528q0 -93 67 -160t160 -67q23 0 58 6q41 7 76 19q92 31 93 79v241h-295v291h586v-896h-130l-82 45q-139 -75 -306 -75
q-213 0 -365 152zM671 1937q46 -46 46 -111t-46 -110q-46 -46 -111 -46t-111 46q-46 45 -46 110t46 111t111 46t111 -46z" />
    <glyph glyph-name="gdotaccent" unicode="&#x121;" horiz-adv-x="1116" 
d="M44 1014q0 213 152 365t365 152q297 0 460 -280l-251 -144q-78 134 -209 134q-93 0 -160 -67t-67 -160v-528q0 -93 67 -160t160 -67q94 0 161 67q66 67 66 160v119h-295v290h586v-409q0 -213 -152 -365t-366 -152q-213 0 -365 152t-152 365v528zM670 1938q46 -46 46 -111
t-46 -111t-111 -46t-111 46t-46 111t46 111t111 46t111 -46z" />
    <glyph glyph-name="uni0122" unicode="&#x122;" horiz-adv-x="1177" 
d="M197 121q-152 152 -152 365v527q0 214 152 366t365 152q298 0 460 -280l-126 -73l-125 -73q-78 135 -209 135q-93 0 -159 -67q-67 -66 -67 -160v-527q0 -94 67 -160q66 -67 159 -67q23 0 58 6q41 7 76 19q92 31 93 78v242h-295v291h586v-896h-129l-83 45
q-139 -75 -306 -75q-213 0 -365 152zM643 -139q30 -35 30 -90q0 -91 -58 -153q-54 -59 -145 -78l-21 104q53 12 73 29q-36 11 -59 42q-22 30 -22 69q0 47 34 81t81 34q55 0 87 -38z" />
    <glyph glyph-name="uni0123" unicode="&#x123;" horiz-adv-x="1116" 
d="M44 1014q0 213 152 365t365 152q297 0 460 -280l-251 -144q-78 134 -209 134q-93 0 -160 -67t-67 -160v-528q0 -93 67 -160t160 -67q94 0 161 67q66 67 66 160v119h-295v290h586v-409q0 -213 -152 -365t-366 -152q-213 0 -365 152t-152 365v528zM642 -139q30 -35 30 -90
q0 -91 -58 -153q-54 -59 -145 -78l-21 104q53 12 73 29q-36 11 -59 42q-22 30 -22 69q0 47 34 81t81 34q55 0 87 -38z" />
    <glyph glyph-name="Hcircumflex" unicode="&#x124;" horiz-adv-x="1267" 
d="M1127 1500v-1500h-290v605h-448v-605h-291v1500h291v-605h448v605h290zM705 1988l187 -325h-198l-81 156l-81 -156h-198l187 325h184z" />
    <glyph glyph-name="hcircumflex" unicode="&#x125;" horiz-adv-x="1265" 
d="M1125 1500v-1500h-290v605h-448v-605h-291v1500h291v-605h448v605h290zM703 1988l187 -325h-198l-81 156l-81 -156h-198l187 325h184z" />
    <glyph glyph-name="Hbar" unicode="&#x126;" horiz-adv-x="1298" 
d="M1162 1500v-142h93v-186h-93v-1172h-290v605h-450v-605h-290v1172h-93v186h93v142h290v-142h450v142h290zM422 895h450v277h-450v-277z" />
    <glyph glyph-name="hbar" unicode="&#x127;" horiz-adv-x="1273" 
d="M1162 1500v-142h93v-186h-93v-1172h-290v605h-450v-605h-290v1172h-93v186h93v142h290v-142h450v142h290zM422 895h450v277h-450v-277z" />
    <glyph glyph-name="Itilde" unicode="&#x128;" horiz-adv-x="557" 
d="M76 1500h289v-1500h-289v1500zM272 1713q-19 5 -55 20q-71 29 -105 29q-22 0 -49 -15q-10 -6 -22 -15l-10 -8l-10 -8l-119 142q109 90 210 90q40 0 113 -30l27 -11l26 -9q29 -10 50 -10q23 0 50 16q10 6 22 16q8 5 20 16l119 -142q-109 -91 -211 -91q-25 0 -56 10z" />
    <glyph glyph-name="itilde" unicode="&#x129;" horiz-adv-x="502" 
d="M76 1500h289v-1500h-289v1500zM272 1713q-19 5 -55 20q-71 29 -105 29q-22 0 -49 -15q-10 -6 -22 -15l-10 -8l-10 -8l-119 142q109 90 210 90q40 0 113 -30l27 -11l26 -9q29 -10 50 -10q23 0 50 16q10 6 22 16q8 5 20 16l119 -142q-109 -91 -211 -91q-25 0 -56 10z" />
    <glyph glyph-name="Imacron" unicode="&#x12a;" horiz-adv-x="467" 
d="M67 1500h291v-1500h-291v1500zM-23 1924h472v-197h-472v197z" />
    <glyph glyph-name="imacron" unicode="&#x12b;" horiz-adv-x="486" 
d="M67 1500h291v-1500h-291v1500zM-23 1924h472v-197h-472v197z" />
    <glyph glyph-name="Ibreve" unicode="&#x12c;" horiz-adv-x="529" 
d="M99 1500h290v-1500h-290v1500zM511 1959q0 -110 -78 -189q-79 -78 -189 -78q-111 0 -189 78q-78 79 -78 189h169q0 -40 29 -69q28 -28 69 -28q40 0 69 28t29 69h169z" />
    <glyph glyph-name="ibreve" unicode="&#x12d;" horiz-adv-x="529" 
d="M99 1500h290v-1500h-290v1500zM511 1959q0 -110 -78 -189q-79 -78 -189 -78q-111 0 -189 78q-78 79 -78 189h169q0 -40 29 -69q28 -28 69 -28q40 0 69 28t29 69h169z" />
    <glyph glyph-name="Iogonek" unicode="&#x12e;" horiz-adv-x="536" 
d="M396 -408q-67 -51 -161 -51q-128 0 -196 54q-62 50 -62 134q0 140 147 271h-98v1500h291v-1500q-62 -49 -98 -98q-48 -65 -48 -129q0 -71 64 -71q40 0 64 19z" />
    <glyph glyph-name="iogonek" unicode="&#x12f;" horiz-adv-x="464" 
d="M396 -408q-67 -51 -161 -51q-128 0 -196 54q-62 50 -62 134q0 140 147 271h-98v1500h291v-1500q-62 -49 -98 -98q-48 -65 -48 -129q0 -71 64 -71q40 0 64 19z" />
    <glyph glyph-name="Idotaccent" unicode="&#x130;" horiz-adv-x="552" 
d="M110 1500h290v-1500h-290v1500zM366 1937q46 -46 46 -111t-46 -111q-46 -45 -111 -45t-111 45q-46 46 -46 111t46 111t111 46t111 -46z" />
    <glyph glyph-name="dotlessi" unicode="&#x131;" horiz-adv-x="527" 
d="M96 1500h291v-1500h-291v1500z" />
    <glyph glyph-name="IJ" unicode="&#x132;" horiz-adv-x="1636" 
d="M98 1500h291v-1500h-291v1500zM874 429q0 -70 50 -120t121 -50q70 0 120 50t50 120v1071h290v-1071q0 -190 -135 -325t-325 -135q-191 0 -326 135q-135 134 -135 325v190h290v-190z" />
    <glyph glyph-name="ij" unicode="&#x133;" horiz-adv-x="1373" 
d="M1242 430q0 -191 -134 -326q-135 -135 -326 -135q-60 0 -119 14q-60 14 -136 53l145 251q59 -26 105 -26q75 0 125 47q50 48 50 122v1070h290v-1070zM96 1500h291v-1500h-291v1500z" />
    <glyph glyph-name="Jcircumflex" unicode="&#x134;" horiz-adv-x="1020" 
d="M281 429q0 -70 50 -120t120 -50q71 0 121 50t50 120v1071h290v-1071q0 -190 -135 -325t-326 -135q-190 0 -325 135t-135 325v190h290v-190zM487 1664l188 325h184l188 -325h-199l-81 155l-81 -155h-199z" />
    <glyph glyph-name="jcircumflex" unicode="&#x135;" horiz-adv-x="751" 
d="M643 430q0 -191 -135 -326t-326 -135q-60 0 -119 14t-135 53l145 251q59 -26 105 -26q75 0 125 47q50 48 50 122v1070h290v-1070zM218 1664l188 325h184l188 -325h-199l-81 155l-81 -155h-199z" />
    <glyph glyph-name="uni0136" unicode="&#x136;" horiz-adv-x="1057" 
d="M1034 1500l-421 -728l446 -772h-335l-278 482l-58 -99v-383h-290v1500h290v-537l310 537h336zM665 -138q30 -35 30 -90q0 -92 -58 -154q-54 -58 -145 -77l-22 104q53 12 74 29q-36 11 -59 42q-22 30 -22 68q0 48 34 82q33 34 81 34q55 0 87 -38z" />
    <glyph glyph-name="uni0137" unicode="&#x137;" horiz-adv-x="1055" 
d="M1032 1500l-421 -728l446 -772h-335l-278 482l-58 -99v-383h-290v1500h290v-537l310 537h336zM663 -138q30 -35 30 -90q0 -92 -58 -154q-54 -58 -145 -77l-22 104q53 12 74 29q-36 11 -59 42q-22 30 -22 68q0 48 34 82q33 34 81 34q55 0 87 -38z" />
    <glyph glyph-name="kgreenlandic" unicode="&#x138;" horiz-adv-x="1055" 
d="M1032 1500l-421 -728l446 -772h-335l-278 482l-58 -99v-383h-290v1500h290v-537l310 537h336z" />
    <glyph glyph-name="Lacute" unicode="&#x139;" horiz-adv-x="861" 
d="M388 1500v-1209h480v-291h-770v1500h290zM463 1988l-176 -325h-189l111 325h254z" />
    <glyph glyph-name="lacute" unicode="&#x13a;" horiz-adv-x="859" 
d="M386 1500v-1209h480v-291h-770v1500h290zM461 1988l-176 -325h-189l111 325h254z" />
    <glyph glyph-name="uni013B" unicode="&#x13b;" horiz-adv-x="861" 
d="M388 1501v-1210h480v-291h-770v1501h290zM569 -138q30 -35 30 -90q0 -90 -58 -153q-54 -59 -145 -78l-21 104q53 12 73 29q-36 11 -58 42q-23 30 -23 69q0 47 34 81t81 34q55 0 87 -38z" />
    <glyph glyph-name="uni013C" unicode="&#x13c;" horiz-adv-x="859" 
d="M386 1501v-1210h480v-291h-770v1501h290zM567 -138q30 -35 30 -90q0 -90 -58 -153q-54 -59 -145 -78l-21 104q53 12 73 29q-36 11 -58 42q-23 30 -23 69q0 47 34 81t81 34q55 0 87 -38z" />
    <glyph glyph-name="Lcaron" unicode="&#x13d;" horiz-adv-x="868" 
d="M388 1500v-1209h479v-291h-769v1500h290zM767 1493q30 -35 30 -89q0 -93 -57 -155q-55 -58 -146 -77l-21 105q51 10 74 28q-36 12 -59 42q-22 31 -22 68q0 48 33 82q34 34 82 34q54 0 86 -38z" />
    <glyph glyph-name="lcaron" unicode="&#x13e;" horiz-adv-x="866" 
d="M386 1500v-1209h479v-291h-769v1500h290zM765 1493q30 -35 30 -89q0 -93 -57 -155q-55 -58 -146 -77l-21 105q51 10 74 28q-36 12 -59 42q-22 31 -22 68q0 48 33 82q34 34 82 34q54 0 86 -38z" />
    <glyph glyph-name="Ldot" unicode="&#x13f;" horiz-adv-x="890" 
d="M388 1500v-1209h479v-291h-769v1500h290zM813 905q46 -46 46 -110q0 -65 -46 -111t-111 -46t-111 46t-46 111q0 64 46 110q46 47 111 47t111 -47z" />
    <glyph glyph-name="ldot" unicode="&#x140;" horiz-adv-x="888" 
d="M386 1500v-1209h479v-291h-769v1500h290zM811 905q46 -46 46 -110q0 -65 -46 -111t-111 -46t-111 46t-46 111q0 64 46 110q46 47 111 47t111 -47z" />
    <glyph glyph-name="Lslash" unicode="&#x141;" horiz-adv-x="920" 
d="M422 1500v-621l346 75v-249l-346 -75v-339h480v-291h-770v567l-169 -37v249l169 37v684h290z" />
    <glyph glyph-name="lslash" unicode="&#x142;" horiz-adv-x="920" 
d="M422 1500v-621l346 75v-249l-346 -75v-339h480v-291h-770v567l-169 -37v249l169 37v684h290z" />
    <glyph glyph-name="Nacute" unicode="&#x143;" horiz-adv-x="1228" 
d="M1088 1500v-1500h-281l-419 835v-835h-290v1500h281l418 -836v836h291zM775 1988l-176 -325h-189l111 325h254z" />
    <glyph glyph-name="nacute" unicode="&#x144;" horiz-adv-x="1226" 
d="M1086 1500v-1500h-281l-419 835v-835h-290v1500h281l418 -836v836h291zM773 1988l-176 -325h-189l111 325h254z" />
    <glyph glyph-name="uni0145" unicode="&#x145;" horiz-adv-x="1227" 
d="M1087 1500v-1500h-280l-418 835v-835h-291v1500h281l418 -836v836h290zM679 -138q30 -35 30 -90q0 -90 -58 -153q-55 -59 -145 -78l-21 104q53 12 73 29q-36 11 -59 42q-22 30 -22 68q0 48 34 82q33 34 81 34q55 0 87 -38z" />
    <glyph glyph-name="uni0146" unicode="&#x146;" horiz-adv-x="1225" 
d="M1085 1500v-1500h-280l-418 835v-835h-291v1500h281l418 -836v836h290zM677 -138q30 -35 30 -90q0 -90 -58 -153q-55 -59 -145 -78l-21 104q53 12 73 29q-36 11 -59 42q-22 30 -22 68q0 48 34 82q33 34 81 34q55 0 87 -38z" />
    <glyph glyph-name="Ncaron" unicode="&#x147;" horiz-adv-x="1227" 
d="M1087 1500v-1500h-280l-418 835v-835h-291v1500h281l418 -836v836h290zM511 1988l82 -155l81 155h198l-187 -325h-184l-188 325h198z" />
    <glyph glyph-name="ncaron" unicode="&#x148;" horiz-adv-x="1225" 
d="M1085 1500v-1500h-280l-418 835v-835h-291v1500h281l418 -836v836h290zM509 1988l82 -155l81 155h198l-187 -325h-184l-188 325h198z" />
    <glyph glyph-name="napostrophe" unicode="&#x149;" horiz-adv-x="1225" 
d="M1085 1500v-1500h-280l-418 835v-835h-291v1500h281l418 -836v836h290z" />
    <glyph glyph-name="Eng" unicode="&#x14a;" horiz-adv-x="1227" 
d="M388 835v-835h-290v1500h281l418 -836v836h290v-1500q-1 -190 -135 -325q-135 -134 -325 -134q-51 0 -110 12v306q61 -27 105 -27q75 0 125 48t50 122v17z" />
    <glyph glyph-name="eng" unicode="&#x14b;" horiz-adv-x="1225" 
d="M386 835v-835h-290v1500h281l418 -836v836h290v-1500q-1 -190 -135 -325q-135 -134 -325 -134q-51 0 -110 12v306q61 -27 105 -27q75 0 125 48t50 122v17z" />
    <glyph glyph-name="Omacron" unicode="&#x14c;" horiz-adv-x="1176" 
d="M402 1174q-67 -67 -67 -160v-528q0 -93 67 -160t160 -67q94 0 160 67q67 66 67 160v528q0 93 -67 160q-66 66 -160 66q-93 0 -160 -66zM928 1379q151 -152 151 -365v-528q0 -213 -151 -365q-152 -152 -366 -152q-213 0 -365 152t-152 365v528q0 213 152 365t365 152
q214 0 366 -152zM327 1924h470v-197h-470v197z" />
    <glyph glyph-name="omacron" unicode="&#x14d;" horiz-adv-x="1175" 
d="M401 1174q-67 -67 -67 -160v-528q0 -93 67 -160t160 -67q94 0 160 67q67 66 67 160v528q0 93 -67 160q-66 66 -160 66q-93 0 -160 -66zM927 1379q151 -152 151 -365v-528q0 -213 -151 -365q-152 -152 -366 -152q-213 0 -365 152t-152 365v528q0 213 152 365t365 152
q214 0 366 -152zM326 1924h470v-197h-470v197z" />
    <glyph glyph-name="Obreve" unicode="&#x14e;" horiz-adv-x="1176" 
d="M402 1174q-67 -67 -67 -160v-528q0 -93 67 -160t160 -67q94 0 160 67q67 66 67 160v528q0 93 -67 160q-66 66 -160 66q-93 0 -160 -66zM928 1379q151 -152 151 -365v-528q0 -213 -151 -365q-152 -152 -366 -152q-213 0 -365 152t-152 365v528q0 213 152 365t365 152
q214 0 366 -152zM829 1959q0 -110 -79 -188q-78 -78 -189 -78q-110 0 -188 78t-78 188h169q0 -40 29 -69q28 -28 68 -28q41 0 70 28q28 29 28 69h170z" />
    <glyph glyph-name="obreve" unicode="&#x14f;" horiz-adv-x="1175" 
d="M401 1174q-67 -67 -67 -160v-528q0 -93 67 -160t160 -67q94 0 160 67q67 66 67 160v528q0 93 -67 160q-66 66 -160 66q-93 0 -160 -66zM927 1379q151 -152 151 -365v-528q0 -213 -151 -365q-152 -152 -366 -152q-213 0 -365 152t-152 365v528q0 213 152 365t365 152
q214 0 366 -152zM828 1959q0 -110 -79 -188q-78 -78 -189 -78q-110 0 -188 78t-78 188h169q0 -40 29 -69q28 -28 68 -28q41 0 70 28q28 29 28 69h170z" />
    <glyph glyph-name="Ohungarumlaut" unicode="&#x150;" horiz-adv-x="1177" 
d="M402 1174q-67 -67 -67 -160v-528q0 -93 67 -160t160 -67t160 67t67 160v528q0 93 -67 160q-67 66 -160 66t-160 -66zM927 1379q153 -152 153 -365v-528q0 -213 -153 -365q-152 -152 -365 -152t-365 152t-152 365v528q0 213 152 365t365 152t365 -152zM846 1664h-188
l110 325h255zM467 1664h-189l111 325h254z" />
    <glyph glyph-name="ohungarumlaut" unicode="&#x151;" horiz-adv-x="1176" 
d="M401 1174q-67 -67 -67 -160v-528q0 -93 67 -160t160 -67t160 67t67 160v528q0 93 -67 160q-67 66 -160 66t-160 -66zM926 1379q153 -152 153 -365v-528q0 -213 -153 -365q-152 -152 -365 -152t-365 152t-152 365v528q0 213 152 365t365 152t365 -152zM845 1664h-188
l110 325h255zM466 1664h-189l111 325h254z" />
    <glyph glyph-name="OE" unicode="&#x152;" horiz-adv-x="1497" 
d="M659 290v920h-111q-88 0 -150 -63q-63 -62 -63 -150v-511q0 -80 58 -138t138 -58h128zM1430 1500v-290h-480v-315h368v-290h-368v-315h480v-290h-899q-200 0 -343 143t-143 343v511q0 208 148 356q147 147 355 147h882z" />
    <glyph glyph-name="oe" unicode="&#x153;" horiz-adv-x="1496" 
d="M658 290v920h-111q-88 0 -150 -63q-63 -62 -63 -150v-511q0 -80 58 -138t138 -58h128zM1429 1500v-290h-480v-315h368v-290h-368v-315h480v-290h-899q-200 0 -343 143t-143 343v511q0 208 148 356q147 147 355 147h882z" />
    <glyph glyph-name="Racute" unicode="&#x154;" horiz-adv-x="1166" 
d="M388 605v-605h-290v1500h552q185 0 316 -132q132 -131 132 -316q0 -140 -82 -256t-214 -165l260 -631h-314l-248 605h-112zM388 1209v-314h262q65 0 111 47q46 46 46 110q0 65 -46 111t-111 46h-262zM604 1663h-189l111 325h254z" />
    <glyph glyph-name="racute" unicode="&#x155;" horiz-adv-x="1164" 
d="M386 605v-605h-290v1500h552q185 0 316 -132q132 -131 132 -316q0 -140 -82 -256t-214 -165l260 -631h-314l-248 605h-112zM386 1209v-314h262q65 0 111 47q46 46 46 110q0 65 -46 111t-111 46h-262zM602 1663h-189l111 325h254z" />
    <glyph glyph-name="uni0156" unicode="&#x156;" horiz-adv-x="1166" 
d="M388 605v-605h-290v1500h552q185 0 316 -132q132 -131 132 -316q0 -140 -82 -256t-214 -165l260 -631h-314l-248 605h-112zM388 1209v-314h262q65 0 111 47q46 46 46 110q0 65 -46 111t-111 46h-262zM684 -138q30 -35 30 -90q0 -92 -58 -154q-54 -58 -145 -77l-21 104
q52 12 73 29q-36 11 -58 42q-23 30 -23 68q0 48 34 82q33 34 81 34q55 0 87 -38z" />
    <glyph glyph-name="uni0157" unicode="&#x157;" horiz-adv-x="1164" 
d="M386 605v-605h-290v1500h552q185 0 316 -132q132 -131 132 -316q0 -140 -82 -256t-214 -165l260 -631h-314l-248 605h-112zM386 1209v-314h262q65 0 111 47q46 46 46 110q0 65 -46 111t-111 46h-262zM682 -138q30 -35 30 -90q0 -92 -58 -154q-54 -58 -145 -77l-21 104
q52 12 73 29q-36 11 -58 42q-23 30 -23 68q0 48 34 82q33 34 81 34q55 0 87 -38z" />
    <glyph glyph-name="Rcaron" unicode="&#x158;" horiz-adv-x="1166" 
d="M388 605v-605h-290v1500h552q185 0 316 -132q132 -131 132 -316q0 -140 -82 -256t-214 -165l260 -631h-314l-248 605h-112zM388 1209v-314h262q65 0 111 47q46 46 46 110q0 65 -46 111t-111 46h-262zM517 1988l81 -155l81 155h199l-188 -325h-184l-188 325h199z" />
    <glyph glyph-name="rcaron" unicode="&#x159;" horiz-adv-x="1164" 
d="M386 605v-605h-290v1500h552q185 0 316 -132q132 -131 132 -316q0 -140 -82 -256t-214 -165l260 -631h-314l-248 605h-112zM386 1209v-314h262q65 0 111 47q46 46 46 110q0 65 -46 111t-111 46h-262zM515 1988l81 -155l81 155h199l-188 -325h-184l-188 325h199z" />
    <glyph glyph-name="Sacute" unicode="&#x15a;" horiz-adv-x="1059" 
d="M372 930q55 -35 147 -35q211 0 353 -119q150 -127 150 -334q0 -198 -154 -338q-149 -135 -349 -135q-298 0 -460 279l251 146q78 -135 209 -135q80 0 144 51q69 54 69 132q0 86 -66 128q-55 35 -147 35q-211 0 -353 119q-150 127 -150 334q0 198 154 338q149 135 349 135
q298 0 460 -279l-252 -146q-77 135 -208 135q-80 0 -144 -51q-69 -54 -69 -132q0 -86 66 -128zM613 1664h-188l110 325h255z" />
    <glyph glyph-name="sacute" unicode="&#x15b;" horiz-adv-x="925" 
d="M151 1417q128 114 302 114q266 0 411 -252l-251 -144q-61 106 -160 106q-57 0 -98 -30q-46 -34 -46 -89q0 -67 68 -134q42 -41 156 -118l31 -21l32 -22q35 -25 62 -46q69 -53 114 -105q116 -133 116 -302q0 -172 -133 -290q-128 -115 -302 -115q-265 0 -411 252l251 144
q61 -105 160 -105q57 0 98 30q46 33 46 88q0 68 -68 134q-40 40 -156 119l-31 21l-32 22q-35 24 -62 45q-69 54 -114 106q-116 132 -116 301q0 172 133 291zM548 1665h-189l111 325h254z" />
    <glyph glyph-name="Scircumflex" unicode="&#x15c;" horiz-adv-x="1059" 
d="M372 930q55 -35 147 -35q211 0 353 -119q150 -127 150 -334q0 -198 -154 -338q-149 -135 -349 -135q-298 0 -460 279l251 146q78 -135 209 -135q80 0 144 51q69 54 69 132q0 86 -66 128q-55 35 -147 35q-211 0 -353 119q-150 127 -150 334q0 198 154 338q149 135 349 135
q298 0 460 -279l-252 -146q-77 135 -208 135q-80 0 -144 -51q-69 -54 -69 -132q0 -86 66 -128zM239 1663l188 325h184l188 -325h-199l-81 156l-81 -156h-199z" />
    <glyph glyph-name="scircumflex" unicode="&#x15d;" horiz-adv-x="925" 
d="M151 1417q128 114 302 114q266 0 411 -252l-251 -144q-61 106 -160 106q-57 0 -98 -30q-46 -34 -46 -89q0 -67 68 -134q42 -41 156 -118l31 -21l32 -22q35 -25 62 -46q69 -53 114 -105q116 -133 116 -302q0 -172 -133 -290q-128 -115 -302 -115q-265 0 -411 252l251 144
q61 -105 160 -105q57 0 98 30q46 33 46 88q0 68 -68 134q-40 40 -156 119l-31 21l-32 22q-35 24 -62 45q-69 54 -114 106q-116 132 -116 301q0 172 133 291zM173 1663l188 325h184l188 -325h-199l-81 156l-81 -156h-199z" />
    <glyph glyph-name="Scedilla" unicode="&#x15e;" horiz-adv-x="1058" 
d="M519 896q210 0 352 -120q150 -127 150 -334q0 -174 -122 -307q-118 -128 -291 -159l-11 -48q78 -15 124 -78q44 -58 44 -132q0 -85 -64 -141q-72 -64 -200 -64q-147 0 -229 83l104 105q35 -35 109 -35q98 0 98 67q0 30 -29 52q-31 24 -80 24q-30 0 -59 -9l41 172
q-255 29 -397 276l126 73l126 72q77 -134 208 -134q80 0 144 51q68 54 68 132q0 86 -66 128q-55 35 -146 35q-211 0 -353 120q-150 127 -150 334q0 199 154 338q149 136 349 136q148 0 268 -75q114 -72 191 -205l-251 -146q-78 135 -208 135q-80 0 -145 -50
q-68 -55 -68 -133q0 -86 66 -128q55 -35 147 -35z" />
    <glyph glyph-name="scedilla" unicode="&#x15f;" horiz-adv-x="925" 
d="M888 374q0 -148 -101 -260q-97 -106 -243 -136l-12 -49q78 -16 125 -79q43 -58 43 -131q0 -85 -63 -141q-72 -64 -201 -64q-147 0 -229 82l104 105q35 -35 109 -35q41 0 67 15q31 18 31 53q0 29 -29 51q-31 24 -80 24q-31 0 -60 -9l42 173q-223 28 -350 248l252 144
q61 -105 160 -105q57 0 99 30q45 33 45 88q0 67 -67 134q-42 40 -157 118q-41 28 -63 43q-35 25 -63 46q-68 54 -114 106q-115 132 -115 302q0 171 133 290q128 115 302 115q266 0 412 -252l-252 -145q-60 106 -160 106q-57 0 -99 -30q-45 -34 -45 -89q0 -67 67 -133
q42 -41 157 -119q42 -28 63 -43q35 -25 62 -46q69 -53 115 -105q115 -132 115 -302z" />
    <glyph glyph-name="Scaron" unicode="&#x160;" horiz-adv-x="1059" 
d="M372 930q55 -35 147 -35q211 0 353 -119q150 -127 150 -334q0 -198 -154 -338q-149 -135 -349 -135q-298 0 -460 279l251 146q78 -135 209 -135q80 0 144 51q69 54 69 132q0 86 -66 128q-55 35 -147 35q-211 0 -353 119q-150 127 -150 334q0 198 154 338q149 135 349 135
q298 0 460 -279l-252 -146q-77 135 -208 135q-80 0 -144 -51q-69 -54 -69 -132q0 -86 66 -128zM438 1988l81 -156l81 156h199l-188 -325h-184l-188 325h199z" />
    <glyph glyph-name="scaron" unicode="&#x161;" horiz-adv-x="925" 
d="M151 1417q128 114 302 114q266 0 411 -252l-251 -144q-61 106 -160 106q-57 0 -98 -30q-46 -34 -46 -89q0 -67 68 -134q42 -41 156 -118l31 -21l32 -22q35 -25 62 -46q69 -53 114 -105q116 -133 116 -302q0 -172 -133 -290q-128 -115 -302 -115q-265 0 -411 252l251 144
q61 -105 160 -105q57 0 98 30q46 33 46 88q0 68 -68 134q-40 40 -156 119l-31 21l-32 22q-35 24 -62 45q-69 54 -114 106q-116 132 -116 301q0 172 133 291zM372 1988l81 -156l81 156h199l-188 -325h-184l-188 325h199z" />
    <glyph glyph-name="uni0162" unicode="&#x162;" horiz-adv-x="920" 
d="M544 0l-17 -72q78 -16 125 -78q43 -58 43 -132q0 -84 -63 -140q-72 -64 -201 -64q-147 0 -229 82l104 105q35 -35 108 -35q42 0 68 15q30 18 30 53q0 29 -28 51q-32 24 -80 24q-31 0 -59 -10l48 201h-90v1210h-295v291h881v-291h-295v-1210h-50z" />
    <glyph glyph-name="uni0163" unicode="&#x163;" horiz-adv-x="920" 
d="M544 0l-17 -72q78 -16 125 -78q43 -58 43 -132q0 -84 -63 -140q-72 -64 -201 -64q-147 0 -229 82l104 105q35 -35 108 -35q42 0 68 15q30 18 30 53q0 29 -28 51q-32 24 -80 24q-31 0 -59 -10l48 201h-90v1210h-295v291h881v-291h-295v-1210h-50z" />
    <glyph glyph-name="Tcaron" unicode="&#x164;" horiz-adv-x="919" 
d="M888 1500v-291h-295v-1209h-290v1209h-295v291h880zM727 1988l-187 -325h-184l-187 325h198l81 -155l81 155h198z" />
    <glyph glyph-name="tcaron" unicode="&#x165;" horiz-adv-x="919" 
d="M888 1500v-291h-295v-1209h-290v1209h-295v291h880zM727 1988l-187 -325h-184l-187 325h198l81 -155l81 155h198z" />
    <glyph glyph-name="Tbar" unicode="&#x166;" horiz-adv-x="941" 
d="M888 1500v-291h-295v-338h187v-242h-187v-629h-290v629h-188v242h188v338h-295v291h880z" />
    <glyph glyph-name="tbar" unicode="&#x167;" horiz-adv-x="919" 
d="M888 1500v-291h-295v-338h187v-242h-187v-629h-290v629h-188v242h188v338h-295v291h880z" />
    <glyph glyph-name="Utilde" unicode="&#x168;" horiz-adv-x="1248" 
d="M1117 486q0 -213 -152 -365q-151 -152 -365 -152q-213 0 -365 152t-152 365v1014h290v-1014q0 -93 67 -160t160 -67q94 0 160 67q67 67 67 160v1014h290v-1014zM597 1733l-27 11l-26 9q-30 10 -52 10q-23 0 -50 -16q-10 -6 -22 -15l-10 -8l-10 -8l-119 142q109 90 211 90
q40 0 113 -30q72 -29 103 -29q23 0 50 16q10 6 22 15l10 8l10 8l119 -142q-109 -90 -211 -90q-39 0 -111 29z" />
    <glyph glyph-name="utilde" unicode="&#x169;" horiz-adv-x="1248" 
d="M1117 486q0 -213 -152 -365q-151 -152 -365 -152q-213 0 -365 152t-152 365v1014h290v-1014q0 -93 67 -160t160 -67q94 0 160 67q67 67 67 160v1014h290v-1014zM597 1733l-27 11l-26 9q-30 10 -52 10q-23 0 -50 -16q-10 -6 -22 -15l-10 -8l-10 -8l-119 142q109 90 211 90
q40 0 113 -30q72 -29 103 -29q23 0 50 16q10 6 22 15l10 8l10 8l119 -142q-109 -90 -211 -90q-39 0 -111 29z" />
    <glyph glyph-name="Umacron" unicode="&#x16a;" horiz-adv-x="1248" 
d="M1117 486q0 -213 -152 -365q-151 -152 -365 -152q-213 0 -365 152t-152 365v1014h290v-1014q0 -93 67 -160t160 -67q94 0 160 67q67 67 67 160v1014h290v-1014zM365 1924h470v-197h-470v197z" />
    <glyph glyph-name="umacron" unicode="&#x16b;" horiz-adv-x="1248" 
d="M1117 486q0 -213 -152 -365q-151 -152 -365 -152q-213 0 -365 152t-152 365v1014h290v-1014q0 -93 67 -160t160 -67q94 0 160 67q67 67 67 160v1014h290v-1014zM365 1924h470v-197h-470v197z" />
    <glyph glyph-name="Ubreve" unicode="&#x16c;" horiz-adv-x="1248" 
d="M1117 486q0 -213 -152 -365q-151 -152 -365 -152q-213 0 -365 152t-152 365v1014h290v-1014q0 -93 67 -160t160 -67q94 0 160 67q67 67 67 160v1014h290v-1014zM867 1959q0 -110 -79 -188q-77 -78 -189 -78q-111 0 -188 78q-78 77 -78 188h169q0 -40 29 -69
q28 -28 68 -28q41 0 70 28q28 29 28 69h170z" />
    <glyph glyph-name="ubreve" unicode="&#x16d;" horiz-adv-x="1248" 
d="M1117 486q0 -213 -152 -365q-151 -152 -365 -152q-213 0 -365 152t-152 365v1014h290v-1014q0 -93 67 -160t160 -67q94 0 160 67q67 67 67 160v1014h290v-1014zM867 1959q0 -110 -79 -188q-77 -78 -189 -78q-111 0 -188 78q-78 77 -78 188h169q0 -40 29 -69
q28 -28 68 -28q41 0 70 28q28 29 28 69h170z" />
    <glyph glyph-name="Uring" unicode="&#x16e;" horiz-adv-x="1248" 
d="M1117 486q0 -213 -152 -365q-151 -152 -365 -152q-213 0 -365 152t-152 365v1014h290v-1014q0 -93 67 -160t160 -67q94 0 160 67q67 67 67 160v1014h290v-1014zM546 1880q-22 -23 -22 -54q0 -32 22 -54t54 -22q31 0 54 22q22 22 22 54q0 31 -22 54q-22 22 -54 22t-54 -22
zM756 1982q65 -64 65 -156t-65 -157q-64 -64 -156 -64t-156 64q-65 65 -65 157t65 156q64 65 156 65t156 -65z" />
    <glyph glyph-name="uring" unicode="&#x16f;" horiz-adv-x="1248" 
d="M1117 486q0 -213 -152 -365q-151 -152 -365 -152q-213 0 -365 152t-152 365v1014h290v-1014q0 -93 67 -160t160 -67q94 0 160 67q67 67 67 160v1014h290v-1014zM546 1880q-22 -23 -22 -54q0 -32 22 -54t54 -22q31 0 54 22q22 22 22 54q0 31 -22 54q-22 22 -54 22t-54 -22
zM756 1982q65 -64 65 -156t-65 -157q-64 -64 -156 -64t-156 64q-65 65 -65 157t65 156q64 65 156 65t156 -65z" />
    <glyph glyph-name="Uhungarumlaut" unicode="&#x170;" horiz-adv-x="1249" 
d="M1118 486q0 -213 -152 -365t-366 -152q-213 0 -365 152t-152 365v1014h290v-1014q0 -93 67 -160t160 -67q94 0 161 67q66 67 66 160v1014h291v-1014zM796 1664h-189l111 325h254zM416 1664h-188l111 325h254z" />
    <glyph glyph-name="uhungarumlaut" unicode="&#x171;" horiz-adv-x="1249" 
d="M1118 486q0 -213 -152 -365t-366 -152q-213 0 -365 152t-152 365v1014h290v-1014q0 -93 67 -160t160 -67q94 0 161 67q66 67 66 160v1014h291v-1014zM796 1664h-189l111 325h254zM416 1664h-188l111 325h254z" />
    <glyph glyph-name="Uogonek" unicode="&#x172;" horiz-adv-x="1249" 
d="M1118 1500v-1014q0 -135 -67 -253q-65 -114 -176 -184h2l-17 -13l-17 -14l-35 -29q-41 -34 -68 -63q-71 -78 -71 -158q0 -71 64 -71q40 0 64 19l98 -129q-68 -51 -162 -51q-128 0 -196 55q-62 49 -62 133q0 125 116 241q-211 4 -359 155q-149 151 -149 362v1014h290
v-1014q0 -94 67 -160q67 -67 160 -67q94 0 161 67q66 66 66 160v1014h291z" />
    <glyph glyph-name="uogonek" unicode="&#x173;" horiz-adv-x="1249" 
d="M1118 1500v-1014q0 -135 -67 -253q-65 -114 -176 -184h2l-17 -13l-17 -14l-35 -29q-41 -34 -68 -63q-71 -78 -71 -158q0 -71 64 -71q40 0 64 19l98 -129q-68 -51 -162 -51q-128 0 -196 55q-62 49 -62 133q0 125 116 241q-211 4 -359 155q-149 151 -149 362v1014h290
v-1014q0 -94 67 -160q67 -67 160 -67q94 0 161 67q66 66 66 160v1014h291z" />
    <glyph glyph-name="Wcircumflex" unicode="&#x174;" horiz-adv-x="1564" 
d="M1533 1500l-387 -1500h-215l-160 621l-161 -621h-214l-388 1500h299l196 -756l196 756h143l197 -756l196 756h298zM863 1988l187 -325h-199l-80 156l-81 -156h-199l188 325h184z" />
    <glyph glyph-name="wcircumflex" unicode="&#x175;" horiz-adv-x="1539" 
d="M1525 1500l-387 -1500h-215l-160 621l-161 -621h-214l-388 1500h299l196 -756l196 756h143l197 -756l196 756h298zM855 1988l187 -325h-199l-80 156l-81 -156h-199l188 325h184z" />
    <glyph glyph-name="Ycircumflex" unicode="&#x176;" horiz-adv-x="1059" 
d="M1049 1500l-397 -852v-648h-290v648l-397 852h320l222 -476l222 476h320zM599 1988l188 -325h-199l-81 156l-81 -156h-199l188 325h184z" />
    <glyph glyph-name="ycircumflex" unicode="&#x177;" horiz-adv-x="1059" 
d="M1049 1500l-397 -852v-648h-290v648l-397 852h320l222 -476l222 476h320zM599 1988l188 -325h-199l-81 156l-81 -156h-199l188 325h184z" />
    <glyph glyph-name="Ydieresis" unicode="&#x178;" horiz-adv-x="1058" 
d="M1048 1500l-396 -852v-648h-291v648l-396 852h320l221 -476l222 476h320zM407 1913q36 -36 36 -87t-36 -87t-87 -36t-87 36t-36 87t36 87t87 36t87 -36zM780 1913q36 -36 36 -87t-36 -87t-87 -36t-87 36t-36 87t36 87t87 36t87 -36z" />
    <glyph glyph-name="Zacute" unicode="&#x179;" horiz-adv-x="1011" 
d="M944 1500l-241 -605h127v-290h-243l-125 -315h470v-290h-898l241 605h-127v290h242l126 315h-470v290h898zM760 1990l-177 -326h-189l111 326h255z" />
    <glyph glyph-name="zacute" unicode="&#x17a;" horiz-adv-x="1007" 
d="M940 1500l-482 -1210h471v-290h-899l481 1210h-469v290h898zM756 1990l-177 -326h-189l111 326h255z" />
    <glyph glyph-name="Zdotaccent" unicode="&#x17b;" horiz-adv-x="1011" 
d="M944 1500l-241 -605h127v-290h-243l-125 -315h470v-290h-898l241 605h-127v290h242l126 315h-470v290h898zM600 1937q46 -46 46 -111t-46 -111q-46 -45 -111 -45t-111 45q-46 46 -46 111t46 111q45 46 111 46q65 0 111 -46z" />
    <glyph glyph-name="zdotaccent" unicode="&#x17c;" horiz-adv-x="1007" 
d="M940 1500l-482 -1209h470v-291h-898l482 1210h-471v290h899zM596 1937q46 -46 46 -111t-46 -111q-46 -45 -111 -45t-111 45q-46 46 -46 111t46 111t111 46t111 -46z" />
    <glyph glyph-name="Zcaron" unicode="&#x17d;" horiz-adv-x="1011" 
d="M944 1500l-241 -605h127v-290h-243l-125 -315h470v-290h-898l241 605h-127v290h242l126 315h-470v290h898zM408 1988l81 -155l81 155h199l-188 -325h-184l-188 325h199z" />
    <glyph glyph-name="zcaron" unicode="&#x17e;" horiz-adv-x="1007" 
d="M940 1500l-482 -1209h470v-291h-898l482 1210h-471v290h899zM404 1988l81 -155l81 155h199l-188 -325h-184l-188 325h199z" />
    <glyph glyph-name="longs" unicode="&#x17f;" horiz-adv-x="887" 
d="M358 0v1210h480v291h-770v-1501h290z" />
    <glyph glyph-name="circumflex" unicode="&#x2c6;" horiz-adv-x="1024" 
d="M241 1663l188 325h184l188 -325h-199l-81 156l-81 -156h-199z" />
    <glyph glyph-name="caron" unicode="&#x2c7;" horiz-adv-x="1024" 
d="M460 1988l81 -155l81 155h199l-188 -325h-184l-188 325h199z" />
    <glyph glyph-name="uni02C9" unicode="&#x2c9;" horiz-adv-x="1024" 
d="M287 1924h471v-197h-471v197z" />
    <glyph glyph-name="breve" unicode="&#x2d8;" horiz-adv-x="1024" 
d="M788 1959q0 -110 -79 -188q-78 -78 -189 -78q-110 0 -188 78t-78 188h169q0 -40 29 -69q28 -28 68 -28q41 0 70 28q28 29 28 69h170z" />
    <glyph glyph-name="dotaccent" unicode="&#x2d9;" horiz-adv-x="642" 
d="M431 1937q46 -46 46 -111t-46 -110q-46 -46 -111 -46t-111 46q-46 45 -46 110t46 111t111 46t111 -46z" />
    <glyph glyph-name="ring" unicode="&#x2da;" horiz-adv-x="1024" 
d="M469 1880q-22 -23 -22 -54q0 -32 22 -54t54 -22q31 0 54 22q22 22 22 54q0 31 -22 54q-22 22 -54 22t-54 -22zM679 1982q65 -64 65 -156t-65 -157q-64 -64 -156 -64t-156 64q-65 65 -65 157t65 156q64 65 156 65t156 -65z" />
    <glyph glyph-name="ogonek" unicode="&#x2db;" horiz-adv-x="1024" 
d="M530 -297q40 0 64 18l97 -128q-67 -51 -161 -51q-128 0 -196 54q-62 50 -62 134q0 125 118 244q19 18 44 39l46 37h194l-17 -13l-17 -14l-36 -28q-41 -34 -67 -63q-71 -79 -71 -159q0 -70 64 -70z" />
    <glyph glyph-name="tilde" unicode="&#x2dc;" horiz-adv-x="1024" 
d="M552 1733l-27 11l-26 9q-30 10 -52 10q-23 0 -50 -16q-10 -6 -22 -15l-10 -8l-10 -8l-119 142q109 90 211 90q40 0 113 -30q72 -29 103 -29q23 0 50 16q10 6 22 15l10 8l10 8l119 -142q-109 -90 -211 -90q-39 0 -111 29z" />
    <glyph glyph-name="hungarumlaut" unicode="&#x2dd;" horiz-adv-x="1024" 
d="M765 1175h-188l110 325h255zM386 1175h-189l111 325h255z" />
    <glyph glyph-name="endash" unicode="&#x2013;" horiz-adv-x="1108" 
d="M1010 629h-856v242h856v-242z" />
    <glyph glyph-name="emdash" unicode="&#x2014;" horiz-adv-x="2048" 
d="M1735 629h-1409v242h1409v-242z" />
    <glyph glyph-name="quoteleft" unicode="&#x2018;" horiz-adv-x="346" 
d="M66 1095q-41 48 -41 122q0 124 78 209q75 81 198 106l28 -142q-69 -14 -99 -39q49 -16 80 -57q30 -42 30 -93q0 -65 -46 -111t-111 -46q-74 0 -117 51z" />
    <glyph glyph-name="quoteright" unicode="&#x2019;" horiz-adv-x="346" 
d="M299 1481q41 -48 41 -122q0 -124 -78 -209q-75 -81 -198 -106l-28 142q69 14 99 39q-49 16 -80 57q-30 42 -30 93q0 65 46 111t111 46q74 0 117 -51z" />
    <glyph glyph-name="quotesinglbase" unicode="&#x201a;" horiz-adv-x="557" 
d="M270 284q73 0 118 -52q40 -47 40 -122q0 -126 -78 -210q-72 -79 -198 -104l-28 142q71 14 99 38q-49 16 -80 57q-30 41 -30 94q0 64 46 111q47 46 111 46z" />
    <glyph glyph-name="quotedblleft" unicode="&#x201c;" horiz-adv-x="790" 
d="M502 1095q-41 48 -41 122q0 125 78 210q74 80 198 105l28 -142q-69 -14 -99 -39q49 -16 79 -57q31 -42 31 -93q0 -65 -46 -111t-111 -46q-74 0 -117 51zM89 1095q-40 48 -40 122q0 125 78 210q74 80 198 105l28 -142q-70 -15 -99 -39q49 -16 79 -57q31 -42 31 -93
q0 -65 -46 -111t-111 -46q-75 0 -118 51z" />
    <glyph glyph-name="quotedblright" unicode="&#x201d;" horiz-adv-x="790" 
d="M323 1481q41 -48 41 -122q0 -125 -78 -210q-74 -80 -198 -105l-28 142q69 14 99 39q-49 16 -79 57q-31 42 -31 93q0 65 46 111t111 46q74 0 117 -51zM736 1481q40 -48 40 -122q0 -125 -78 -210q-74 -80 -198 -105l-28 142q70 15 99 39q-49 16 -79 57q-31 42 -31 93
q0 65 46 111t111 46q75 0 118 -51z" />
    <glyph glyph-name="quotedblbase" unicode="&#x201e;" horiz-adv-x="790" 
d="M323 233q41 -48 41 -122q0 -125 -78 -210q-74 -80 -198 -105l-28 142q69 14 99 39q-49 16 -79 57q-31 42 -31 93q0 65 46 111t111 46q74 0 117 -51zM736 233q40 -48 40 -122q0 -125 -78 -210q-74 -80 -198 -105l-28 142q70 15 99 39q-49 16 -79 57q-31 42 -31 93
q0 65 46 111t111 46q75 0 118 -51z" />
    <glyph glyph-name="dagger" unicode="&#x2020;" 
d="M986 822h-340v-822h-290v822h-339v291h339v387h290v-387h340v-291z" />
    <glyph glyph-name="daggerdbl" unicode="&#x2021;" 
d="M984 0h-339v-388h-290v388h-340v290h340v532h-340v291h340v387h290v-387h339v-291h-339v-532h339v-290z" />
    <glyph glyph-name="bullet" unicode="&#x2022;" horiz-adv-x="1024" 
d="M717 970q92 -91 92 -220t-92 -220q-91 -91 -219 -91q-129 0 -220 91t-91 220t91 220t220 91q128 0 219 -91z" />
    <glyph glyph-name="ellipsis" unicode="&#x2026;" horiz-adv-x="2048" 
d="M1529 237q46 -46 46 -111t-46 -111t-111 -46t-111 46t-46 111t46 111t111 46t111 -46zM1108 237q46 -46 46 -111t-46 -111t-111 -46t-111 46t-46 111t46 111t111 46t111 -46zM687 237q46 -46 46 -111t-46 -111t-112 -46q-64 0 -110 46t-46 111t46 111t110 46
q66 0 112 -46z" />
    <glyph glyph-name="perthousand" unicode="&#x2030;" horiz-adv-x="2969" 
d="M2385 634q-28 -29 -28 -69v-257q0 -40 28 -69q29 -29 70 -29q40 0 68 29q29 29 29 69v257q0 40 -29 69q-28 29 -68 29q-41 0 -70 -29zM2694 805q100 -100 100 -240v-257q0 -139 -99 -239q-100 -100 -240 -100t-240 99q-100 100 -100 240v257q0 140 99 240
q100 100 241 100q140 0 239 -100zM923 -1h-256l546 1500h257zM431 1259q-29 -29 -29 -69v-256q0 -40 29 -69q28 -29 68 -29q41 0 70 29q28 28 28 69v256q0 40 -28 69q-29 29 -70 29q-40 0 -68 -29zM740 1430q99 -100 99 -240v-256q0 -140 -99 -240q-100 -100 -241 -100
q-139 0 -239 100q-100 99 -100 240v256q0 140 100 240q99 100 239 100q141 0 241 -100zM1568 634q-29 -29 -29 -69v-257q0 -40 29 -69t69 -29t69 29t29 69v257q0 40 -29 69t-69 29t-69 -29zM1877 805q99 -100 99 -240v-257q0 -139 -99 -239q-100 -100 -240 -100t-240 99
q-100 100 -100 240v257q0 140 100 240q99 100 240 100q140 0 240 -100z" />
    <glyph glyph-name="guilsinglleft" unicode="&#x2039;" horiz-adv-x="795" 
d="M727 1348l-328 -596l328 -598h-331l-328 598l328 596h331z" />
    <glyph glyph-name="guilsinglright" unicode="&#x203a;" horiz-adv-x="795" 
d="M399 1348l328 -596l-328 -598h-331l328 598l-328 596h331z" />
    <glyph glyph-name="fraction" unicode="&#x2044;" horiz-adv-x="813" 
d="M11 0l557 1500h214l-557 -1500h-214z" />
    <glyph glyph-name="fraction" unicode="&#x2215;" horiz-adv-x="813" 
d="M11 0l557 1500h214l-557 -1500h-214z" />
    <glyph glyph-name="franc" unicode="&#x20a3;" horiz-adv-x="1049" 
d="M999 1500v-290h-480v-315h369v-290h-369v-176h192v-242h-192v-187h-290v187h-194v242h194v1071h770z" />
    <glyph glyph-name="lira" unicode="&#x20a4;" horiz-adv-x="1166" 
d="M111 1059q18 199 166 335q149 137 350 137q297 0 460 -280l-252 -144q-78 134 -208 134q-81 0 -145 -52q-62 -52 -78 -130h307v-242h-240l21 -32l22 -33q26 -40 41 -69h156v-242h-108q-8 -78 -42 -151h526v-290h-1052v290h24q89 0 155 36q75 41 95 115h-274v242h202
l-21 32l-20 33q-22 37 -38 69h-123v242h76z" />
    <glyph glyph-name="Euro" unicode="&#x20ac;" horiz-adv-x="1179" 
d="M760 1059v-242h-314v-134h314v-242h-309q16 -79 79 -130q62 -52 143 -52q130 0 209 135l251 -145q-162 -280 -460 -280q-200 0 -349 136q-148 137 -166 336h-134v242h132v134h-132v242h134q18 199 166 335q149 137 349 137q297 0 460 -280l-251 -145q-78 135 -209 135
q-80 0 -143 -52q-63 -51 -79 -130h309z" />
    <glyph glyph-name="uni2116" unicode="&#x2116;" horiz-adv-x="2296" 
d="M1530 1174q-66 -67 -66 -160v-52q0 -94 66 -160q67 -67 160 -67q94 0 160 67q67 66 67 160v52q0 93 -67 160q-66 66 -160 66q-93 0 -160 -66zM2055 1379q152 -152 152 -365v-52q0 -213 -152 -365t-365 -152t-365 152t-152 365v52q0 213 152 365t365 152t365 -152zM2162 0
h-944v291h944v-291zM316 835v-835h-291v1500h281l419 -836v836h290v-1500h-281z" />
    <glyph glyph-name="trademark" unicode="&#x2122;" horiz-adv-x="1377" 
d="M1263 1500v-612h-162v317l-150 -211l-150 211v-317h-161v612h149l162 -228l162 228h150zM515 1500v-161h-151v-451h-161v451h-152v161h464z" />
    <glyph glyph-name="notequal" unicode="&#x2260;" horiz-adv-x="906" 
d="M843 669v-242h-471l-120 -230h-221l121 230h-134v242h260l84 162h-344v242h471l121 230h220l-121 -230h134v-242h-260l-84 -162h344z" />
    <glyph glyph-name="lessequal" unicode="&#x2264;" 
d="M834 660v-335l-671 311v227l671 312v-336l-236 -89zM163 242h671v-242h-671v242z" />
    <glyph glyph-name="greaterequal" unicode="&#x2265;" 
d="M506 750l-237 89v336l671 -312v-227l-671 -311v335zM940 0h-671v242h671v-242z" />
    </font>
</defs>
</svg>
